<svg id="Capa_2" data-name="Capa 2" xmlns="http://www.w3.org/2000/svg" viewBox="0 0 374.98 492.14"><defs><style>.cls-1{fill:#5fc7ff;stroke:#000;stroke-miterlimit:10;}</style></defs><title>erifranck path avatar</title><path class="cls-1" d="M823.18,321.75a47.14,47.14,0,0,0-4.56-8.18c-4.08-5.82-10.27-11-17.44-12.3-2.89-.54-6.13-.45-8.62,1.34a34,34,0,0,0-3,4.24,43.1,43.1,0,0,0-3.74-24.21A41.1,41.1,0,0,0,760.07,261c-8.13-2.22-22.56-2.4-28.61,5.08a17,17,0,0,0-2-6.73c-3.86-7.08-11.67-9.38-18.91-6.55a16.76,16.76,0,0,0-4.91,3.2,81.56,81.56,0,0,0-4.87-19.44c-6.4-16.93-20.18-29.55-36.56-36.88-29.18-13-73.5-15.42-93.07,15.11-5.44,8.48-8.17,18.78-9.36,28.69-.78,6.43-.89,14.68,2.73,20.53a30,30,0,0,0-15.95-5c-12.71-.35-25,6.76-32.2,17a31.13,31.13,0,0,0-5.91,18.76c.1,4.25.7,10.28,3.11,14.47a16.26,16.26,0,0,0-6.28.37c-5.63,1.47-8.7,6.46-8.87,12.11a17.42,17.42,0,0,0,.59,5.4c-11.48-2-22.78,1.8-31.69,9.82-22.33,20.1-13.47,53.57-.66,76.31,8.76,15.56,23.09,26.33,40.93,27.49-2.51,8.38-2.12,18.38-.19,26.61a77.84,77.84,0,0,0,13.2,28.21c2.24,3,5.72,7.75,9.7,10.86a22.78,22.78,0,0,0,2.53,2.46,17.85,17.85,0,0,0,4.44,2.79,10.41,10.41,0,0,0,2.74.66c1.35,5.71,4.22,10.89,6.62,16.79,3,7.43,6,15,10.66,21.57,4.26,6,10.09,11.55,17.43,13.41.46.11.94.2,1.43.27a14.88,14.88,0,0,0,2.94.73,9.63,9.63,0,0,0,2,0c1.5,2.26,3,8.8,3.57,10a17.09,17.09,0,0,0,1.11,1.85c-1.8,2.92-2.62,6.28-4.2,9.4-2.24,4.41-4.25,8.91-6.48,13.31a22,22,0,0,1-1.35,2.28.85.85,0,0,0-.23,0,8.14,8.14,0,0,0-2.54.41.92.92,0,0,0-.72.25c-1.5.59-2.89,1.47-4.61,2.14-2.52,1-4.95,1.42-7,3.39a9.45,9.45,0,0,0-2.4,3.76c-6.9,4-15.63,6.56-22.92,8.09-7,1.46-34.68,2.47-31.63,15.57,1,4.4,8,2.52,6.77-1.86-.9-3.31,17.74-6,18.62-6.14a88.09,88.09,0,0,0,18.27-4.79A84.86,84.86,0,0,0,555.83,618c.09.74.22,1.47.37,2.22C558.42,631,565,644,575,649.46a2,2,0,0,0,2.64-2.64c-4.13-7.82-10.89-13.37-14-21.93-1.4-3.85-4.06-9.87,0-12.91,1.65-1.22,3.87-1.57,5.67-2.53l.18-.11c-.09.36-.18.72-.25,1.09-.49,3.14.62,6.33,1.88,9.14,7.49,16.88,19.92,29.23,34.76,39.82,9.68,6.91,24,17.44,36.43,11.19,6.65-3.34,9.93-10.48,12.51-17.17,1.19,2.35,2.72,4.48,3.36,7.12,1.09,4.49-.84,9,.61,13.4.46,1.38,2.71,2,3.43.44a19.82,19.82,0,0,0,1-13.42c-1.33-4.13-4.73-7.24-7.22-10.72.12-.34.25-.68.38-1,4,2.12,7.3,5.43,11.64,6.88,6.49,2.2,13.83,2.28,20.54,3.64,7.28,1.48,14.7,3.73,21.14,7.51a15.74,15.74,0,0,1,7.48,8.56,10.33,10.33,0,0,0,3.76,5.26c2.72,2.06,6.36-1.92,4.6-4.61s-2.22-5.93-4.07-8.62a23.34,23.34,0,0,0-6.56-6.08c-6.63-4.35-14.85-6.86-22.55-8.46-7.87-1.64-15.92-1.13-23.75-2.56-3.83-.7-7.24-3.9-11-4.7,1.12-3,2.24-6.07,3.27-9.12,1.18-3.47,1.14-7,1.88-10.39a109.28,109.28,0,0,0,12.09,3.36c4.92,1,10.54,2.44,15.53,1.5a2.41,2.41,0,0,0,1.81-1.31,22.58,22.58,0,0,0,6.06-2.81c9.74-6.69,18.87-14.35,27.9-21.94,19.68-16.55,40.68-34.7,52.38-58.06,5.17-10.36,9.18-22.23,8.93-33.93-.2-9.1-3.47-17.44-5.66-26.08l22.12-3.53L795.34,433l-7,1.11a73.37,73.37,0,0,0,1.76-16.92c-.35-12.13-.81-27.1-7.43-37.76-1.17-1.88-2.36-1.77-3.71-2.71a11.77,11.77,0,0,0,1.66-4.56,23.76,23.76,0,0,0,11.47,4.9C806,379,818.91,370,824.25,357.57a38.47,38.47,0,0,0,2.85-10.93A41.45,41.45,0,0,0,823.18,321.75Zm-25.73-16.29a10.1,10.1,0,0,1,2.69,0c-2.54,1.38-3.95,4.62-6.85,4.39a44.22,44.22,0,0,1-2.89,8.87c-4.53,10.18-15,17.91-26,17.92,9.38-1.64,17.8-8.61,21.73-17.45a44.26,44.26,0,0,0,2.87-8.81C792.44,310.65,793.75,306,797.45,305.46Zm-3.4,151.17.24,1.42-7.95,2c-.08.33-.15.66-.22,1l-4.62,1.2c.18-.86.38-1.72.58-2.58ZM607.41,497.5c-.15,4.26-1.23,9.49-5.36,11.62a8.47,8.47,0,0,1-7.19.19,7.9,7.9,0,0,0,4-.88c4.11-2.11,5.18-7.32,5.33-11.55a27.61,27.61,0,0,0-.08-3.15l22.59.16.09.57-19.51-.13A25.77,25.77,0,0,1,607.41,497.5Zm145.07,3.09c2.5,6.24,4.57,13.37,2.77,20.09-1.86,6.94-7.83,10.18-14.65,10.77a17.57,17.57,0,0,1-7.23-.81,20.64,20.64,0,0,0,3.24,0c6.78-.6,12.72-3.82,14.57-10.71,1.79-6.68-.27-13.77-2.76-20Q747,496.5,745.61,493l9.78-1.56c.83.3,1.69.58,2.56.83l-8.3,1.33Q751.09,497.11,752.48,500.59ZM590.26,398.75a11.11,11.11,0,0,0-2.2-9.5c1.24.34,2.48.64,3.74.91a11.08,11.08,0,0,1,1.55,8.61c-1.43,6.47-5.66,9-10.55,9.13a25.57,25.57,0,0,1,5.32,3.92,38.44,38.44,0,0,1,6.74,10c3.65,7.81,5.74,16.55,7,25.06,1.43,9.88-.18,19.93,1.69,29.74.14.73.31,1.47.48,2.21l-3,.11c-.23-.94-.44-1.88-.61-2.81-1.87-9.75-.27-19.74-1.69-29.56-1.24-8.46-3.32-17.14-7-24.91a38.12,38.12,0,0,0-6.69-10,25.52,25.52,0,0,0-5.29-3.89C584.64,407.73,588.84,405.18,590.26,398.75Zm102.48-38a9,9,0,0,0,3.15,1.63l-.29.11c-2.51.75-4.55,0-6.55-1.52-3.46-2.6-5.75-6.63-7.59-10.47-4.19-8.74-3.53-18.26-6.73-27.18a2.26,2.26,0,0,0-.54-.81c.71-1.88,3.51-1.4,4.14.37,3.22,9,2.56,18.55,6.78,27.34C687,354.08,689.26,358.14,692.74,360.75Zm74.41,123.71-3.85.61a11,11,0,0,1-3.17-.57,12.71,12.71,0,0,0,8.63-4.6c2.75-2.08,4.92-5.76,6-10.3a51.59,51.59,0,0,0,.07,8.25A15.44,15.44,0,0,1,767.15,484.46Zm-22.76,3.63-6.9-40.7,4-.64a1.81,1.81,0,0,0,.09.93l-.13,0,2.84,16.74a30.15,30.15,0,0,0,1.07,6.3l2.83,16.73Zm2.13-39.38a1.12,1.12,0,0,1-.69-.38,6.32,6.32,0,0,0,1.34-.58c.48-.28.94-.57,1.4-.86-.4.61-.78,1.26-1.14,1.94Zm14.22,13.81a3.94,3.94,0,0,0,.35-.55,4.54,4.54,0,0,0,.64-1.5,6.1,6.1,0,0,0-.13-3.31,4.3,4.3,0,0,0-.25-.48,4.06,4.06,0,0,1,3.7,2.32,4.34,4.34,0,0,1,1,1.49,6,6,0,0,1,.14,3.32,4.85,4.85,0,0,1-.64,1.5,4.31,4.31,0,0,1-.36.55,3.72,3.72,0,0,1-2.82,2,4,4,0,0,1-3.65-2.16,5.8,5.8,0,0,1-.67-1.2A3.75,3.75,0,0,0,760.74,462.52Zm-1.12-17.71c-4.67,2.61-8,9.66-8,17.94,0,8.86,3.86,16.31,9,18.41a7.3,7.3,0,0,1-1.14.09c-3.13,0-6-1.92-8.09-5a29.41,29.41,0,0,1-3.11-13.47,28.2,28.2,0,0,1,4.35-15.55l-.55.34a11.87,11.87,0,0,1,3.44-3l5.58-.89a8.34,8.34,0,0,1,1.85.66Zm-53,2.15,2.51,15.24a23.46,23.46,0,0,0-3.44,1.71L703,447.56Zm-42.74,46.11a19.07,19.07,0,0,1-4.93-.64c.46,0,.93.05,1.41.05,13.19,0,21.31-13.41,21.31-25.39a29.08,29.08,0,0,0-2.25-11l4.51-.74.85.82-1.72.28a29.52,29.52,0,0,1,2.26,11.1C685.32,479.58,677.15,493.07,663.88,493.07ZM676.17,356c.36.63.73,1.24,1.11,1.84a6.92,6.92,0,0,1-2,.52,7.5,7.5,0,0,1-2.12-.07A5.72,5.72,0,0,0,676.17,356ZM643.68,467.09a27.68,27.68,0,0,1,.68-5.27l10.73-1.76c-.12.33-.22.67-.31,1l-7,1.15a27.13,27.13,0,0,0-.69,5.29c.25,8.2,4.55,17.88,12.69,20.31C649.43,487.48,644,476.34,643.68,467.09Zm16.68-20.78a14.05,14.05,0,0,1,3,.32c-6,.2-10.28,3.84-13,8.65l-4,.65C649.13,450.52,653.77,446.31,660.36,446.31Zm11.24,5.48-.16,0c-.05-.13-.08-.27-.13-.4Zm5.09-.83a25.45,25.45,0,0,0-1.83-2.41c1.15.66,2.28,1.39,3.37,2.15Zm-1.53,6.76-8.08,1.33a6.69,6.69,0,0,1,.61,1.93c.07.41.13.82.16,1.24a11.94,11.94,0,0,1,.24,2.19c.38,2.77.51,5.9-2.1,7.68a5.37,5.37,0,0,1-3,1,4,4,0,0,1,.24,1.29,4.63,4.63,0,0,1-4.83,4.42,5.11,5.11,0,0,1-2.42-.61,4.49,4.49,0,0,0,3.74-4.28,3.88,3.88,0,0,0-.24-1.28,5.38,5.38,0,0,0,3-1c2.59-1.76,2.46-4.87,2.09-7.62a11.73,11.73,0,0,0-.24-2.18c0-.42-.09-.82-.15-1.24a7.23,7.23,0,0,0-.61-1.91l11.23-1.85C674.91,457.12,675,457.42,675.16,457.72Zm-31.46-8.08c.76-.46,1.56-.89,2.38-1.32a25.59,25.59,0,0,0-3.48,5.17,40.63,40.63,0,0,0-3.21,3.6l-4.2.69A30.63,30.63,0,0,1,643.7,449.64Zm50.69,10.46c.25.92-1,1.8-1.7,1s-1.56-1.83-2.41-2.73a21.65,21.65,0,0,0-1.69-3.81l9.74-1.6.16.94-6.21,1A22.64,22.64,0,0,1,694.39,460.1Zm-9.62-10.47a32,32,0,0,0-5.73-4.29,40.75,40.75,0,0,0-14.58-5.74c6.37,0,12.84,2.8,18.21,6a34.69,34.69,0,0,1,4.89,3.53Zm-13.64-101,0,.23c-.2,1.42-1,2.55-.16,2.65-2.12-.19-5.25-5-6-6.37a24.59,24.59,0,0,1-2.51-9c-.65-6.05.5-12.19-1.53-18a2.37,2.37,0,0,0-.47-.79,2.15,2.15,0,0,1,4,.31c2,5.89.88,12.07,1.53,18.15a24.64,24.64,0,0,0,2.54,9.07A27.58,27.58,0,0,0,671.13,348.65ZM631.3,385.12a73.07,73.07,0,0,0,24.18-19.72c2.76-3.53,5.38-7.56,6.43-12a19.44,19.44,0,0,0,2.6,2.61,37.34,37.34,0,0,1-5.55,9.17,73.37,73.37,0,0,1-24.32,19.84,60.12,60.12,0,0,1-28,6.54A60.54,60.54,0,0,0,631.3,385.12Zm-43,110.45c-.3-.66-.6-1.32-.91-2l10.32.07c0,.19,0,.39.06.58l-7.31-.05c.31.65.61,1.3.92,2,1,2.26,2.23,5.4,4.44,6.86a3.1,3.1,0,0,1-2-.11C590.92,502,589.5,498.17,588.32,495.57Zm11.29-7.43c-.26-1-.53-2-.82-2.94l-2.93.11c-.07-.21-.12-.43-.19-.65h0c.05.24.11.45.17.66l-10.17.38c-.51.74-.85,1.43-.08,2.32h-1.12l.72,1.24c-.79-1.4-1.63-2.77-2.56-4.1l13.06-.49h0l29.38-1.1.11.65-19.61.74c.28,1.08.54,2.17.79,3.26Zm27.87-23.54,12.06-2c-.06.33-.1.66-.14,1L630.79,465l7.08,43-3.15.52Zm15.58,30a1,1,0,0,1,1.35-.49c4.85,2.43,9,5.62,14,7C652.62,500.64,648.1,497.38,643.06,494.59Zm41.68-2.7a1.38,1.38,0,0,0,.08-.74c.33-.22.67-.43,1-.63,1.22-.71,3.12.48,2.55,2a21.15,21.15,0,0,1-5.69,8.21l-5.52.91A21.45,21.45,0,0,0,684.74,491.89Zm22-21.7c.24-1.94,10.1-6.36,28.21-6.68l.1.56c-15.74.82-24.28,4.76-24.51,6.57l.37,2.22a20.76,20.76,0,0,0-3.39,2.07Zm29.75,3.33v-.93l.24,1.41-.26-.48Zm-.22,52.12a11.84,11.84,0,0,1-6.09-1.84c-2.6-1.73-4.44-4.42-6.76-6.53a2.24,2.24,0,0,1,2.89-.11c2.84,2.2,4.84,5.44,7.81,7.42A10.24,10.24,0,0,0,736.25,525.64ZM777,491c-3.26,3.39-8.23,3.49-13.07,2.4,4.09.2,7.89-.91,10.21-4.7a1.06,1.06,0,0,0,.11-.21l2.15-.35Zm3.89-49.56-4.69.75a27.3,27.3,0,0,1,3.53,3.89c-.32,1.22-.63,2.45-.94,3.68l-1.35-1.08a29.74,29.74,0,0,0-5.44-6.77l9.14-1.46C781.07,440.75,781,441.08,780.9,441.41Zm-4.26,9.65a27.69,27.69,0,0,1,1.06,3c-.81,3.25-1.53,6.53-2.12,9.82,0-.38,0-.77,0-1.16,0-6.21-1.9-11.72-4.81-15.19a23.54,23.54,0,0,0-1.45-2.1C771.9,447.15,774.32,449.21,776.64,451.06Zm-11.52-13.22a18.81,18.81,0,0,0-2.46-.6,18.7,18.7,0,0,1,2.48,0,16.76,16.76,0,0,1,1.92.26ZM703,367.74a11,11,0,0,1-7.2,1.55,10.85,10.85,0,0,0,3.45-1.38,8.86,8.86,0,0,0,4-5.05c.46.53.92,1,1.42,1.56.31.33.64.66,1,1A9.65,9.65,0,0,1,703,367.74Zm-95.55,16.63a54.94,54.94,0,0,1-8.21-.17,74.44,74.44,0,0,1-15-3.48c-3.5-1.11-6.87-2.58-10.44-2.81h0c4.72-.7,9,1.3,13.47,2.72a74.67,74.67,0,0,0,15.11,3.51C604.1,384.29,605.79,384.36,607.48,384.37Zm-27,17.53c-5.39,1.11-12.85-5-17.06-7.93a1.71,1.71,0,0,1,2.36-.4C569.18,395.84,575.25,400.92,580.46,401.9Zm.25,77.84-1.63.06,0,.93c-4.35-4.81-9.87-8.9-15.73-10.28C569.72,470.92,575.83,474.81,580.71,479.74Zm131.15,21.7-3.21-19.52H709c0-3.18,9.24-7.69,24-8.32.09.24.17.49.26.73-12.68,1.16-20.46,5.19-20.46,8.12h-.33l3.23,19.64L633.53,515.6l-.2-1.24Zm20-125.89a74.19,74.19,0,0,1-23.48-17.43c-7.64-8.62-9.62-18.67-12.91-29.31A2.2,2.2,0,0,0,695,328a2.33,2.33,0,0,1,4.22.45c3.31,10.7,5.31,20.81,13,29.48a74.41,74.41,0,0,0,23.62,17.54c6.62,3.17,15,6.41,22.85,6.79C749.69,383.06,739.58,379.26,731.84,375.55Zm-27.68-88.17a1.92,1.92,0,0,1,1.43-.56,23.56,23.56,0,0,0,2.51-.12A25.37,25.37,0,0,1,704.16,287.38Zm53.77,43.23a2.81,2.81,0,0,1,.6-.08h0Zm-27.47-56.36a2.61,2.61,0,0,0,.79,0c2-.37,2.81-1.24,4.29-2.6a15.53,15.53,0,0,1,7.44-4.11,24.37,24.37,0,0,1,2.84-.47,15.91,15.91,0,0,0-6.31,3.82c-1.48,1.36-2.31,2.24-4.3,2.61a2.75,2.75,0,0,1-.81,0c-3.06,9.5-12.15,17.84-21.78,18.44C720.7,289.74,727.82,282.42,730.46,274.25Zm-24.69-7.63a1.37,1.37,0,0,0,1.12-1.4c-.09-2.08-.14-2.86,1.57-4.27a13.77,13.77,0,0,1,5.76-2.86,8.82,8.82,0,0,1,1.87-.22,14.33,14.33,0,0,0-3.82,2.25c-1.72,1.42-1.67,2.2-1.58,4.3a1.38,1.38,0,0,1-1.12,1.41c-1,9.21-5,17.5-14.52,22.37a2.12,2.12,0,0,1-2.3-.12C701.17,283.16,704.87,275.31,705.77,266.62Zm-138.09-22a63.51,63.51,0,0,1,6.68-22.38c5.85-10.93,16-18.39,27.46-22.36-10.25,4.21-19.13,11.31-24.48,21.29a64.07,64.07,0,0,0-6.71,22.52c-.81,6.64-2.16,14.64,2,20.36a1.59,1.59,0,0,1-1.06,2.48A27.24,27.24,0,0,1,578.12,277c3.59,10.3,1.63,23.21-7.47,29.91a1.9,1.9,0,0,1-2.28,0c8.45-6.79,10.23-19.21,6.75-29.18a26.9,26.9,0,0,0-6.47-10.32,1.58,1.58,0,0,0,1.05-2.47C565.54,259.22,566.87,251.27,567.68,244.67Zm-51.94,50.07A27.41,27.41,0,0,1,521.58,279a34.41,34.41,0,0,1,19.25-12.74,34.88,34.88,0,0,0-16.59,12,27.73,27.73,0,0,0-5.88,15.83c-.13,4.57.53,11.29,2.62,15.51a1.76,1.76,0,0,1,.15.44c7.48,3.21,13.16,11.06,11.44,19.38a1.64,1.64,0,0,1-2.81.65,1.45,1.45,0,0,0,.1-.25c1.71-8.27-3.94-16.07-11.37-19.26a1.72,1.72,0,0,0-.16-.43C516.26,306,515.6,299.29,515.74,294.74Zm-6.2,19.12a7.22,7.22,0,0,0-5.24,7.38,23.69,23.69,0,0,0,.94,6.26c.8.23,1.61.48,2.41.77,12.51,4.47,23.63,15,26.73,28.17.46,2-2,3.46-3.38,2.26a2.06,2.06,0,0,0,.65-2c-3.07-13.09-14.13-23.55-26.56-28-.8-.28-1.6-.54-2.4-.77a23.66,23.66,0,0,1-.93-6.22C501.71,316.66,505.29,314.18,509.54,313.86Zm-11.77,119.2a39.18,39.18,0,0,1-13.3-6.67c-6.74-5.11-11.46-12.14-15.45-19.5-7.12-13.15-12.47-29.9-9.18-44.95,3.1-14.14,14.78-27.46,29.58-29.08-13.71,2.75-24.35,15.44-27.29,28.87-3.32,15.15,2.07,32,9.24,45.23,4,7.4,8.76,14.48,15.54,19.61a39.4,39.4,0,0,0,13.38,6.72c3.19.86,6.52,1.22,9.77,1.85l-.2.3C505.91,434.41,501.72,434.13,497.77,433.06ZM531.84,498a73.15,73.15,0,0,1-7.3-8.8,74.76,74.76,0,0,1-9.94-21.81c-2-7.34-2.26-16.22.73-23.44,2.74-6.61,11-6.93,14.48-12.79,1.22-2.06,0-4.2-2-5a8,8,0,0,0-1.24-.38,8.86,8.86,0,0,1,3.94.56c2,.8,3.26,3,2,5-3.5,5.89-11.82,6.21-14.57,12.86-3,7.26-2.74,16.2-.74,23.59a74.66,74.66,0,0,0,10,21.94,71.52,71.52,0,0,0,7.34,8.85c1,1.14,2,2.36,3.13,3.47.07.59.15,1.18.25,1.76C535.49,502.41,533.71,500,531.84,498ZM579,557.05c-2.56-.76-5-3.42-6.68-5.13a70.47,70.47,0,0,1-12.07-16.78c-3.22-6-5.8-12.2-8.46-18.43-1.26-3-2.56-5.88-4-8.75a28.32,28.32,0,0,0-1.68-2.89c-.84-5.57-1.4-10.84.67-16.5,2.39-6.58,8.43-13.08,16-10.88l.21.07c-6.33-.19-11.27,5.56-13.38,11.38s-1.52,11-.67,16.6a28.72,28.72,0,0,1,1.68,2.91c1.47,2.88,2.78,5.82,4,8.8,2.68,6.26,5.27,12.55,8.51,18.54a71.39,71.39,0,0,0,12.15,16.89,33.87,33.87,0,0,0,4.39,4A4.18,4.18,0,0,1,579,557.05Zm-2.37,61.1c-2.26-4.47-2.56-6.94.12-11.21a77.78,77.78,0,0,0,4.91-9.89c1.51-3.39,3.2-6.67,4.78-10a27.25,27.25,0,0,0,2-6.95c.88.88,1.84,1.7,2.8,2.49a23.22,23.22,0,0,1-1.76,5.63c-1.58,3.38-3.29,6.68-4.8,10.09a80.15,80.15,0,0,1-5,10c-2.69,4.3-2.39,6.78-.12,11.28,7.18,14.17,18.66,25.21,31.39,34.41,3.55,2.57,8.5,6.51,13.8,9.42-6.46-2.86-12.73-7.91-17-11C595.18,643.2,583.78,632.23,576.64,618.15ZM655,616.22c-11.6-5.27-22.44-12.07-33.12-19q-8.29-5.35-16-11.43c-4.86-3.82-10.51-7.54-14.78-12-2.06-2.17-3.52-6.85-5.74-9.76,3.27-1.48,5.68-4.34,4.07-7.95,0-.11,0-.23,0-.35a2.62,2.62,0,0,0-.45-1.4,2.29,2.29,0,0,1,.28-.09,2.59,2.59,0,0,1,3.25,2.46c0,.13,0,.25,0,.36,1.62,3.63-.81,6.51-4.09,8,2.23,2.93,3.7,7.64,5.77,9.82,4.29,4.52,10,8.26,14.87,12.1,5.22,4.09,10.58,7.92,16.15,11.5,10.75,6.93,21.65,13.78,33.32,19.08,1.16.52,2.32,1,3.49,1.51C659.64,618.2,657.31,617.26,655,616.22ZM780.71,482.29q-.18-1-.33-2a43.48,43.48,0,0,1,.08-12.11l14.89-3.89.25,1.49-10.89,2.84a44.06,44.06,0,0,0-.08,12.19c0,.27.09.54.14.81ZM791,438.84l.28,1.63c-.68,2.79-1.4,5.56-2.08,8.3-.31,1.22-.64,2.45-1,3.68l-4.67,1.19c.45-1.74.91-3.48,1.35-5.19.74-3,1.52-6,2.25-9Zm-11.68-57.61a29.5,29.5,0,0,1-6.54,4.45A29.93,29.93,0,0,1,758,388.51a28.06,28.06,0,0,0,10.67-2.76,28.75,28.75,0,0,0,8.52-6.47,3,3,0,0,1,2.2,2Zm13.94-9.68c-11.2-1.8-15.94-12.75-19-22.48,0-.41,0-.81.06-1.22a1.9,1.9,0,0,1,3.71-.5c3,10.12,7.71,22.15,19.53,24,.66.1,1.31.17,2,.22A21,21,0,0,1,793.29,371.55Z" transform="translate(-453.15 -190)"/></svg>