<?xml version="1.0" encoding="UTF-8" standalone="no"?>
<!-- Created with Inkscape (http://www.inkscape.org/) -->

<svg
   xmlns:osb="http://www.openswatchbook.org/uri/2009/osb"
   xmlns:dc="http://purl.org/dc/elements/1.1/"
   xmlns:cc="http://creativecommons.org/ns#"
   xmlns:rdf="http://www.w3.org/1999/02/22-rdf-syntax-ns#"
   xmlns:svg="http://www.w3.org/2000/svg"
   xmlns="http://www.w3.org/2000/svg"
   xmlns:sodipodi="http://sodipodi.sourceforge.net/DTD/sodipodi-0.dtd"
   xmlns:inkscape="http://www.inkscape.org/namespaces/inkscape"
   width="210mm"
   height="297mm"
   viewBox="0 0 744.09448819 1052.3622047"
   id="svg2"
   version="1.1"
   inkscape:version="0.91 r13725"
   sodipodi:docname="globoHTML.svg">
  <defs
     id="defs4">
    <linearGradient
       id="linearGradient4258"
       osb:paint="solid">
      <stop
         style="stop-color:#000000;stop-opacity:1;"
         offset="0"
         id="stop4260" />
    </linearGradient>
  </defs>
  <sodipodi:namedview
     id="base"
     pagecolor="#ffffff"
     bordercolor="#666666"
     borderopacity="1.0"
     inkscape:pageopacity="0.0"
     inkscape:pageshadow="2"
     inkscape:zoom="0.98994949"
     inkscape:cx="273.20301"
     inkscape:cy="795.40362"
     inkscape:document-units="px"
     inkscape:current-layer="layer4"
     showgrid="false"
     inkscape:window-width="1020"
     inkscape:window-height="561"
     inkscape:window-x="0"
     inkscape:window-y="18"
     inkscape:window-maximized="0" />
  <metadata
     id="metadata7">
    <rdf:RDF>
      <cc:Work
         rdf:about="">
        <dc:format>image/svg+xml</dc:format>
        <dc:type
           rdf:resource="http://purl.org/dc/dcmitype/StillImage" />
        <dc:title></dc:title>
      </cc:Work>
    </rdf:RDF>
  </metadata>
  <g
     inkscape:label="Layer 1"
     inkscape:groupmode="layer"
     id="layer1"
     style="display:inline">
    <path
       style="fill:none;fill-rule:evenodd;stroke:#000000;stroke-width:4;stroke-linecap:butt;stroke-linejoin:miter;stroke-miterlimit:4;stroke-dasharray:24, 4;stroke-dashoffset:0;stroke-opacity:1"
       d="m 419.6257,399.61932 61.92969,-0.92938 -0.79334,-35.88285 -62.91004,-0.36993 z"
       id="path3340"
       inkscape:connector-curvature="0"
       sodipodi:nodetypes="ccccc" />
    <path
       style="fill:#d72500;fill-opacity:1;stroke:none;stroke-width:4;stroke-linejoin:round;stroke-miterlimit:4;stroke-dasharray:24, 4;stroke-dashoffset:0;stroke-opacity:0.91372549"
       d="m 420.29577,393.96406 c -0.0554,-2.72371 -0.39629,-10.74857 -0.75761,-17.83303 l -0.65696,-12.88083 28.28428,0.0152 c 15.55634,0.008 29.27639,0.28125 30.48898,0.60646 2.13328,0.57212 2.21509,1.11986 2.52538,16.90626 0.17637,8.97324 0.31265,16.39876 0.30285,16.50116 -0.01,0.10239 -13.53321,0.51261 -30.05204,0.91158 l -30.03422,0.72541 -0.10066,-4.95219 z"
       id="path4144"
       inkscape:connector-curvature="0" />
    <path
       style="fill:none;fill-rule:evenodd;stroke:#000000;stroke-width:1px;stroke-linecap:butt;stroke-linejoin:miter;stroke-opacity:1"
       d="m 482.85292,397.78336 -14.14214,57.5787"
       id="path4246"
       inkscape:connector-curvature="0"
       sodipodi:nodetypes="cc" />
    <path
       style="fill:none;fill-rule:evenodd;stroke:#000000;stroke-width:1.00375748px;stroke-linecap:butt;stroke-linejoin:miter;stroke-opacity:1"
       d="m 417.20299,399.80931 17.15261,57.56741"
       id="path4248"
       inkscape:connector-curvature="0"
       sodipodi:nodetypes="cc" />
    <path
       style="fill:none;fill-rule:evenodd;stroke:#000000;stroke-width:1px;stroke-linecap:butt;stroke-linejoin:miter;stroke-opacity:1"
       d="m 449.51789,401.82397 1.01015,51.51778"
       id="path4250"
       inkscape:connector-curvature="0"
       sodipodi:nodetypes="cc" />
    <rect
       style="fill:#f3880c;fill-opacity:1;stroke:#060202;stroke-width:3;stroke-linecap:round;stroke-linejoin:round;stroke-miterlimit:4;stroke-dasharray:24, 24;stroke-dashoffset:0;stroke-opacity:1"
       id="rect4252"
       width="38.385796"
       height="28.284271"
       x="431.33514"
       y="455.36206" />
  </g>
  <g
     inkscape:groupmode="layer"
     id="layer2"
     inkscape:label="Layer 2"
     style="display:inline">
    <path
       style="display:inline;fill:#f06b06;fill-opacity:1;stroke:none;stroke-width:3.13147283;stroke-linejoin:round;stroke-miterlimit:4;stroke-dasharray:none;stroke-dashoffset:0;stroke-opacity:1"
       d="m 409.1681,351.41495 c -3.54713,-4.28857 -16.1646,-19.17569 -28.03881,-33.08249 -23.27582,-27.2601 -28.06693,-33.57534 -38.15616,-50.2943 -14.36046,-23.79686 -19.36887,-38.84917 -20.24808,-60.85376 -0.45755,-11.45134 -0.19322,-14.75075 2.0654,-25.78046 2.74003,-13.3806 9.10438,-33.13806 13.45685,-41.77537 10.94085,-21.71171 35.58899,-44.304523 61.27676,-56.167105 26.42698,-12.203948 52.68749,-16.041489 73.52332,-10.74422 19.53595,4.966788 40.94916,14.332277 51.89984,22.699413 8.29895,6.341012 26.03567,23.635772 31.50973,30.724562 9.2154,11.93376 15.52065,29.49855 19.00025,52.92974 6.16391,41.507 -4.61685,76.73464 -34.72579,113.47133 -13.07216,15.94969 -22.97269,26.82244 -43.45027,47.71706 l -18.57471,18.95301 -31.54449,0 -31.5445,0 -6.44934,-7.79741 z"
       id="path4142"
       inkscape:connector-curvature="0" />
    <path
       style="display:inline;fill:#ffffff;fill-rule:evenodd;stroke:none;stroke-width:1px;stroke-linecap:butt;stroke-linejoin:miter;stroke-opacity:1"
       d="m 326.27927,226.05742 c 0,0 29.91059,-30.85973 119.19799,-33.33503 89.2874,-2.47531 132.33,25.25381 132.33,25.25381 0,0 -30.19574,-87.29435 -133.34014,-85.86296 -103.14441,1.43138 -118.18785,93.94418 -118.18785,93.94418 z"
       id="path4255"
       inkscape:connector-curvature="0"
       sodipodi:nodetypes="czczc" />
  </g>
  <g
     inkscape:groupmode="layer"
     id="layer3"
     inkscape:label="Layer 3">
    <path
       style="fill:none;fill-rule:evenodd;stroke:#000000;stroke-width:3.0999999;stroke-linecap:round;stroke-linejoin:miter;stroke-miterlimit:4;stroke-dasharray:18.59999943, 18.59999943000000044;stroke-opacity:1;stroke-dashoffset:0"
       d="m 414.3898,360.89901 c 0,0 -19.90878,-24.10496 -51.92161,-61.23423 -6.13691,-7.11774 -16.7237,-21.37855 -28.49485,-42.97152 -11.77115,-21.59297 -14.30749,-43.44178 -13.64858,-58.08955 0.93813,-20.8548 10.19875,-47.10858 14.97743,-57.74316 9.38537,-20.8864 28.29184,-38.01314 46.43096,-49.978964 20.95175,-13.821231 49.96261,-22.689352 72.52273,-23.020994 20.86183,-0.306676 58.15209,16.094491 66.20111,21.626633 8.04902,5.532142 33.81989,26.577725 43.62459,44.143105 9.8047,17.56538 13.78634,41.61176 15.25505,61.61745 1.18363,16.12239 -2.97056,40.9252 -11.16671,57.99462 -13.64179,28.41058 -18.78003,31.51247 -33.38431,49.73273 -14.60428,18.22026 -55.26606,58.12693 -55.26606,58.12693 z"
       id="path3336"
       inkscape:connector-curvature="0"
       sodipodi:nodetypes="cszsssszzsszcc" />
    <path
       style="fill:none;fill-rule:evenodd;stroke:#000000;stroke-width:3;stroke-linecap:butt;stroke-linejoin:miter;stroke-opacity:1;stroke-miterlimit:4;stroke-dasharray:none"
       d="m 468.71078,360.40771 c 0,0 61.96307,-47.38875 68.69037,-143.44166 6.7273,-96.05291 -58.58884,-145.461967 -58.58884,-145.461967"
       id="path4240"
       inkscape:connector-curvature="0"
       sodipodi:nodetypes="czc" />
    <path
       style="fill:none;fill-rule:evenodd;stroke:#000000;stroke-width:3;stroke-linecap:round;stroke-linejoin:round;stroke-opacity:1;stroke-miterlimit:4;stroke-dasharray:none"
       d="m 407.09148,77.564998 c 0,0 -44.62765,36.506992 -44.44672,134.350292 0.18093,97.8433 69.70053,145.46196 69.70053,145.46196"
       id="path4242"
       inkscape:connector-curvature="0"
       sodipodi:nodetypes="czc" />
    <path
       style="fill:none;fill-rule:evenodd;stroke:#000000;stroke-width:3;stroke-linecap:butt;stroke-linejoin:miter;stroke-opacity:1;stroke-miterlimit:4;stroke-dasharray:none"
       d="m 446.48743,67.463473 -0.5104,146.484417 -0.49976,143.42936"
       id="path4244"
       inkscape:connector-curvature="0"
       sodipodi:nodetypes="ccc" />
    <path
       sodipodi:nodetypes="cszsssszzsszcc"
       inkscape:connector-curvature="0"
       id="path4283"
       d="m 414.3898,360.89901 c 0,0 -19.90878,-24.10496 -51.92161,-61.23423 -6.13691,-7.11774 -16.7237,-21.37855 -28.49485,-42.97152 -11.77115,-21.59297 -14.30749,-43.44178 -13.64858,-58.08955 0.93813,-20.8548 10.19875,-47.10858 14.97743,-57.74316 9.38537,-20.8864 28.29184,-38.01314 46.43096,-49.978964 20.95175,-13.821231 49.96261,-22.689352 72.52273,-23.020994 20.86183,-0.306676 58.15209,16.094491 66.20111,21.626633 8.04902,5.532142 33.81989,26.577725 43.62459,44.143105 9.8047,17.56538 13.78634,41.61176 15.25505,61.61745 1.18363,16.12239 -2.97056,40.9252 -11.16671,57.99462 -13.64179,28.41058 -18.78003,31.51247 -33.38431,49.73273 -14.60428,18.22026 -55.26606,58.12693 -55.26606,58.12693 z"
       style="fill:none;fill-rule:evenodd;stroke:#000000;stroke-width:3.0999999;stroke-linecap:round;stroke-linejoin:miter;stroke-miterlimit:4;stroke-dasharray:18.59999943, 18.59999943000000044;stroke-opacity:1;stroke-dashoffset:0" />
    <path
       sodipodi:nodetypes="czc"
       inkscape:connector-curvature="0"
       id="path4285"
       d="m 468.71078,360.40771 c 0,0 61.96307,-47.38875 68.69037,-143.44166 6.7273,-96.05291 -58.58884,-145.461967 -58.58884,-145.461967"
       style="fill:none;fill-rule:evenodd;stroke:#000000;stroke-width:3;stroke-linecap:butt;stroke-linejoin:miter;stroke-opacity:1;stroke-miterlimit:4;stroke-dasharray:none" />
    <path
       sodipodi:nodetypes="czc"
       inkscape:connector-curvature="0"
       id="path4287"
       d="m 407.09148,77.564998 c 0,0 -44.62765,36.506992 -44.44672,134.350292 0.18093,97.8433 69.70053,145.46196 69.70053,145.46196"
       style="fill:none;fill-rule:evenodd;stroke:#000000;stroke-width:3;stroke-linecap:round;stroke-linejoin:round;stroke-opacity:1;stroke-miterlimit:4;stroke-dasharray:none" />
  </g>
  <g
     inkscape:groupmode="layer"
     id="layer4"
     inkscape:label="Layer 4">
    <g
       id="g7662"
       transform="matrix(0.29965815,0,0,0.31853019,375.28722,121.89222)"
       style="display:inline;fill:#d45500">
      <g
         id="g7664"
         style="fill:#d45500">
        <path
           id="path7666"
           d="m 119.387,20.312 21.298,0 0,21.045 19.485,0 0,-21.045 21.303,0 0,63.727 -21.303,0 0,-21.339 -19.485,0 0,21.338 -21.298,0 0,-63.726 z"
           inkscape:connector-curvature="0"
           style="fill:#d45500" />
        <path
           id="path7668"
           d="m 209.482,41.444 -18.754,0 0,-21.132 58.812,0 0,21.133 -18.759,0 0,42.594 -21.3,0 0,-42.595 z"
           inkscape:connector-curvature="0"
           style="fill:#d45500" />
        <path
           id="path7670"
           d="m 258.879,20.312 22.21,0 13.661,22.392 13.648,-22.392 22.219,0 0,63.727 -21.212,0 0,-31.586 -14.655,22.658 -0.366,0 -14.665,-22.658 0,31.585 -20.84,0 0,-63.726 z"
           inkscape:connector-curvature="0"
           style="fill:#d45500" />
        <path
           id="path7672"
           d="m 341.219,20.312 21.308,0 0,42.664 29.955,0 0,21.062 -51.263,0 0,-63.726 z"
           inkscape:connector-curvature="0"
           style="fill:#d45500" />
      </g>
      <path
         id="path7674"
         d="m 200.662,266.676 55.338,0 0,-42.92 -59.169,0 3.831,42.92 z M 88.686,111.982 l 30.47,341.74 136.762,37.966 136.891,-37.948 30.507,-341.758 -334.63,0 z M 366.694,431.981 256,462.668 l 0,-43.494 -0.067,0.02 -85.858,-23.835 -6.004,-67.298 42.075,0 3.116,34.914 46.68,12.607 0.059,-0.019 0,-66.973 -93.669,0 -11.306,-126.749 104.974,0 0,-41.914 136.766,0 -26.072,292.054 z"
         inkscape:connector-curvature="0"
         style="fill:#d45500" />
      <path
         id="path7676"
         d="m 307.592,308.59 -51.592,0 0,66.974 46.728,-12.613 4.864,-54.361 z M 256,139.927 l 0,41.914 104.975,0 -3.754,41.915 -101.221,0 0,42.92 97.406,0 -11.499,128.683 -85.907,23.815 0,43.494 110.694,-30.687 26.071,-292.055 -136.765,0 z"
         inkscape:connector-curvature="0"
         style="opacity:0.8;fill:#d45500" />
      <g
         id="g7678"
         style="opacity:0.2;fill:#d45500">
        <polygon
           id="polygon7680"
           points="200.662,266.676 196.831,223.756 256,223.756 256,181.841 151.025,181.841 162.331,308.59 256,308.59 256,266.676 "
           style="fill:#d45500" />
        <polygon
           id="polygon7682"
           points="170.074,395.358 255.933,419.193 256,419.174 256,375.563 255.941,375.582 209.262,362.975 206.146,328.061 164.07,328.061 "
           style="fill:#d45500" />
      </g>
    </g>
    <path
       style="fill:#ffffff;fill-opacity:0.43113768;stroke:none;stroke-width:6;stroke-linecap:round;stroke-linejoin:round;stroke-miterlimit:4;stroke-dasharray:18, 18;stroke-dashoffset:0;stroke-opacity:1"
       d="m 424.27042,218.94179 c -0.21564,-0.69448 -0.90768,-8.53579 -1.53787,-17.42513 -0.63019,-8.88935 -1.38474,-17.41251 -1.67679,-18.94036 l -0.531,-2.77792 15.73763,0 15.73762,0 0,6.56599 0,6.56599 -9.22868,0 -9.22867,0 0.64238,4.68667 c 0.35331,2.57768 0.64238,5.75966 0.64238,7.07107 0,2.31875 0.2364,2.3844 8.58629,2.3844 l 8.5863,0 0,6.56599 0,6.56599 -13.66876,0 c -10.05247,0 -13.77249,-0.33407 -14.06083,-1.26269 z"
       id="path7712"
       inkscape:connector-curvature="0" />
    <path
       style="fill:#f9f9f9;fill-opacity:0.43113768;stroke:none;stroke-width:6;stroke-linecap:round;stroke-linejoin:round;stroke-miterlimit:4;stroke-dasharray:18, 18;stroke-dashoffset:0;stroke-opacity:1"
       d="m 452.00001,248.28791 0,-6.48078 7.02602,-1.82232 7.02603,-1.82231 0.50235,-4.18079 c 0.27629,-2.29943 0.74243,-6.33998 1.03587,-8.97901 l 0.53352,-4.79822 -8.06189,0 -8.0619,0 0,-6.56599 0,-6.56599 14.14214,0 14.14213,0 -0.0125,3.28299 c -0.007,1.80565 -0.6831,10.78338 -1.50276,19.95051 -0.81965,9.16714 -1.49589,16.76164 -1.50275,16.87668 -0.0153,0.2556 -18.62338,5.97536 -22.48837,6.91247 l -2.77792,0.67353 0,-6.48077 z"
       id="path7714"
       inkscape:connector-curvature="0" />
    <path
       style="fill:#f9f9f9;fill-opacity:0.43113768;stroke:none;stroke-width:6;stroke-linecap:round;stroke-linejoin:round;stroke-miterlimit:4;stroke-dasharray:18, 18;stroke-dashoffset:0;stroke-opacity:1"
       d="m 452.00001,186.36437 0,-6.56599 15.77518,0 15.77518,0 -0.6091,2.27284 c -0.335,1.25006 -0.6153,4.20476 -0.62289,6.56599 l -0.0138,4.29315 -15.15229,0 -15.15229,0 0,-6.56599 z"
       id="path7716"
       inkscape:connector-curvature="0" />
    <path
       style="fill:#ffffff;fill-opacity:0.43113768;stroke:none;stroke-width:6;stroke-linecap:round;stroke-linejoin:round;stroke-miterlimit:4;stroke-dasharray:18, 18;stroke-dashoffset:0;stroke-opacity:1"
       d="m 438.38486,251.07946 c -12.58817,-3.76875 -11.76603,-2.69425 -12.99608,-16.98538 l -0.58687,-6.81853 6.02291,0 c 5.66646,0 6.0229,0.14198 6.0229,2.39911 0,7.30897 0.76262,8.25892 8.17333,10.18101 l 6.97896,1.81011 0,6.44194 c 0,4.52014 -0.3767,6.41956 -1.26269,6.36691 -0.69448,-0.0413 -6.25309,-1.56909 -12.35246,-3.39517 z"
       id="path7718"
       inkscape:connector-curvature="0" />
  </g>
</svg>
