<?xml version="1.0" encoding="UTF-8" standalone="no"?>
<!-- Created with Inkscape (http://www.inkscape.org/) -->

<svg
   xmlns:osb="http://www.openswatchbook.org/uri/2009/osb"
   xmlns:dc="http://purl.org/dc/elements/1.1/"
   xmlns:cc="http://creativecommons.org/ns#"
   xmlns:rdf="http://www.w3.org/1999/02/22-rdf-syntax-ns#"
   xmlns:svg="http://www.w3.org/2000/svg"
   xmlns="http://www.w3.org/2000/svg"
   xmlns:sodipodi="http://sodipodi.sourceforge.net/DTD/sodipodi-0.dtd"
   xmlns:inkscape="http://www.inkscape.org/namespaces/inkscape"
   width="210mm"
   height="297mm"
   viewBox="0 0 744.09448819 1052.3622047"
   id="svg2"
   version="1.1"
   inkscape:version="0.91 r13725"
   sodipodi:docname="globoJS.svg"
   enable-background="new">
  <defs
     id="defs4">
    <linearGradient
       id="linearGradient4258"
       osb:paint="solid">
      <stop
         style="stop-color:#000000;stop-opacity:1;"
         offset="0"
         id="stop4260" />
    </linearGradient>
  </defs>
  <sodipodi:namedview
     id="base"
     pagecolor="#ffffff"
     bordercolor="#666666"
     borderopacity="1.0"
     inkscape:pageopacity="0.0"
     inkscape:pageshadow="2"
     inkscape:zoom="0.24748738"
     inkscape:cx="-67.315685"
     inkscape:cy="403.17954"
     inkscape:document-units="px"
     inkscape:current-layer="layer3"
     showgrid="false"
     inkscape:window-width="1020"
     inkscape:window-height="507"
     inkscape:window-x="0"
     inkscape:window-y="72"
     inkscape:window-maximized="0"
     showguides="false">
    <inkscape:grid
       type="xygrid"
       id="grid4189" />
  </sodipodi:namedview>
  <metadata
     id="metadata7">
    <rdf:RDF>
      <cc:Work
         rdf:about="">
        <dc:format>image/svg+xml</dc:format>
        <dc:type
           rdf:resource="http://purl.org/dc/dcmitype/StillImage" />
        <dc:title />
      </cc:Work>
    </rdf:RDF>
  </metadata>
  <g
     inkscape:label="Layer 1"
     inkscape:groupmode="layer"
     id="layer1"
     style="display:inline">
    <path
       style="fill:none;fill-rule:evenodd;stroke:#000000;stroke-width:9.94083691;stroke-linecap:butt;stroke-linejoin:miter;stroke-miterlimit:4;stroke-dasharray:59.64502443, 9.94083742;stroke-dashoffset:0;stroke-opacity:1"
       d="m 292.11184,802.03621 165.17316,-2.15218 -2.11592,-83.0945 -167.78787,-0.85667 z"
       id="path3340"
       inkscape:connector-curvature="0"
       sodipodi:nodetypes="ccccc" />
    <path
       style="fill:#d4aa00;fill-opacity:1;stroke:none;stroke-width:4;stroke-linejoin:round;stroke-miterlimit:4;stroke-dasharray:24, 4;stroke-dashoffset:0;stroke-opacity:0.91372549"
       d="m 293.899,788.94023 c -0.14772,-6.30733 -1.05696,-24.89062 -2.02063,-41.29623 l -1.7522,-29.82837 75.43724,0.0353 c 41.49043,0.0181 78.08328,0.65128 81.3174,1.40438 5.68968,1.32487 5.90786,2.59329 6.73544,39.15009 0.4704,20.77948 0.83387,37.97489 0.80772,38.21203 -0.0265,0.23711 -36.09449,1.18706 -80.152,2.11097 l -80.1045,1.67985 -0.26847,-11.46788 z"
       id="path4144"
       inkscape:connector-curvature="0" />
    <path
       style="fill:none;fill-rule:evenodd;stroke:#000000;stroke-width:2.48520923px;stroke-linecap:butt;stroke-linejoin:miter;stroke-opacity:1"
       d="M 460.74564,797.78465 423.02706,931.1206"
       id="path4246"
       inkscape:connector-curvature="0"
       sodipodi:nodetypes="cc" />
    <path
       style="fill:none;fill-rule:evenodd;stroke:#000000;stroke-width:2.49454761px;stroke-linecap:butt;stroke-linejoin:miter;stroke-opacity:1"
       d="m 285.65022,802.4762 45.74785,133.30979"
       id="path4248"
       inkscape:connector-curvature="0"
       sodipodi:nodetypes="cc" />
    <path
       style="fill:none;fill-rule:evenodd;stroke:#000000;stroke-width:2.48520923px;stroke-linecap:butt;stroke-linejoin:miter;stroke-opacity:1"
       d="m 371.83755,807.14157 2.69418,119.30057"
       id="path4250"
       inkscape:connector-curvature="0"
       sodipodi:nodetypes="cc" />
    <rect
       style="fill:#786721;fill-opacity:1;stroke:#060202;stroke-width:7.45562792;stroke-linecap:round;stroke-linejoin:round;stroke-miterlimit:4;stroke-dasharray:59.64502443, 59.64502443;stroke-dashoffset:0;stroke-opacity:1"
       id="rect4252"
       width="102.37904"
       height="65.49836"
       x="323.34225"
       y="931.12061" />
  </g>
  <g
     inkscape:groupmode="layer"
     id="layer2"
     inkscape:label="Layer 2"
     style="display:inline">
    <path
       style="display:inline;fill:#ffdd55;fill-opacity:1;stroke:none;stroke-width:3.13147283;stroke-linejoin:round;stroke-miterlimit:4;stroke-dasharray:none;stroke-dashoffset:0;stroke-opacity:1"
       d="M 264.2203,690.40856 C 254.75973,680.47744 221.10755,646.00309 189.43777,613.7989 127.35865,550.67223 114.58026,536.04791 87.671179,497.33154 49.37029,442.22476 36.012325,407.36787 33.667376,356.41148 c -1.220328,-26.51805 -0.515345,-34.15856 5.508643,-59.70023 7.30797,-30.9857 24.282352,-76.73836 35.89087,-96.73992 C 104.2473,149.69317 169.98656,97.374625 238.49862,69.904233 308.98223,41.64335 379.0218,32.756699 434.59323,45.023663 c 52.10448,11.50168 109.2158,33.189481 138.42245,52.565418 22.13419,14.683989 69.43994,54.733749 84.03985,71.149379 24.57847,27.6352 41.39524,68.31028 50.67572,122.57026 16.4398,96.11845 -12.31364,177.69569 -92.61744,262.76743 -34.86485,36.93499 -61.27062,62.11318 -115.88655,110.4992 l -49.54074,43.88979 -84.13254,0 -84.13259,0 -17.20109,-18.05658 z"
       id="path4142"
       inkscape:connector-curvature="0" />
    <path
       style="display:inline;fill:#ffffff;fill-rule:evenodd;stroke:none;stroke-width:1px;stroke-linecap:butt;stroke-linejoin:miter;stroke-opacity:1"
       d="m 43.146868,400.11605 c 0,0 79.774772,-71.46239 317.913882,-77.19449 238.1391,-5.73211 352.93836,58.48066 352.93836,58.48066 0,0 -80.53529,-202.14895 -355.63253,-198.83427 -275.097235,3.31468 -315.219712,217.5481 -315.219712,217.5481 z"
       id="path4255"
       inkscape:connector-curvature="0"
       sodipodi:nodetypes="czczc" />
    <path
       style="fill:none;fill-rule:evenodd;stroke:#000000;stroke-width:2.48520923px;stroke-linecap:butt;stroke-linejoin:miter;stroke-opacity:1"
       d="m -223.57749,278.47627 0,18.7138"
       id="path4183"
       inkscape:connector-type="polyline"
       inkscape:connector-curvature="0" />
  </g>
  <g
     inkscape:groupmode="layer"
     id="layer3"
     inkscape:label="Layer 3"
     style="">
    <path
       style="fill:none;fill-rule:evenodd;stroke:#000000;stroke-width:7.70414877;stroke-linecap:round;stroke-linejoin:miter;stroke-miterlimit:4;stroke-dasharray:46.22489251, 46.22489251;stroke-dashoffset:0;stroke-opacity:1"
       d="m 278.14713,712.37095 c 0,0 -53.09884,-55.82026 -138.48052,-141.80113 C 123.29881,554.08717 95.062686,521.06317 63.667771,471.05996 32.272869,421.05676 25.508156,370.46112 27.265545,336.54104 29.767649,288.24723 54.466704,227.45093 67.211965,202.82424 92.24376,154.45726 142.66935,114.7966 191.04833,87.087144 246.9289,55.081082 324.304,34.545019 384.47426,33.777042 440.115,33.066861 539.57214,71.047308 561.03975,83.858196 c 21.4676,12.810856 90.20128,61.546474 116.3515,102.222924 26.15019,40.67643 36.76964,96.36102 40.68683,142.68855 3.15689,37.33484 -7.92278,94.77115 -29.78281,134.29909 -36.38411,65.79085 -50.08837,72.97395 -89.03955,115.1669 C 560.30455,620.42861 451.8552,712.84117 451.8552,712.84117 Z"
       id="path3336"
       inkscape:connector-curvature="0"
       sodipodi:nodetypes="cszsssszzsszcc" />
    <path
       style="fill:none;fill-rule:evenodd;stroke:#000000;stroke-width:7.45562792;stroke-linecap:butt;stroke-linejoin:miter;stroke-miterlimit:4;stroke-dasharray:none;stroke-opacity:1"
       d="m 423.02706,711.23325 c 0,0 165.26216,-109.73893 183.20459,-332.17024 C 624.17408,156.63169 449.96891,42.214331 449.96891,42.214331"
       id="path4240"
       inkscape:connector-curvature="0"
       sodipodi:nodetypes="czc" />
    <path
       style="fill:none;fill-rule:evenodd;stroke:#000000;stroke-width:7.45562792;stroke-linecap:round;stroke-linejoin:round;stroke-miterlimit:4;stroke-dasharray:none;stroke-opacity:1"
       d="m 258.68174,56.24969 c 0,0 -119.02676,84.53986 -118.5442,311.11719 0.48256,226.57736 185.89882,336.84868 185.89882,336.84868"
       id="path4242"
       inkscape:connector-curvature="0"
       sodipodi:nodetypes="czc" />
    <path
       style="fill:none;fill-rule:evenodd;stroke:#000000;stroke-width:7.45562792;stroke-linecap:butt;stroke-linejoin:miter;stroke-miterlimit:4;stroke-dasharray:none;stroke-opacity:1"
       d="m 363.75497,32.85742 -1.36128,339.2164 -1.33292,332.14174"
       id="path4244"
       inkscape:connector-curvature="0"
       sodipodi:nodetypes="ccc" />
    <path
       sodipodi:nodetypes="cszsssszzsszcc"
       inkscape:connector-curvature="0"
       id="path4283"
       d="m 278.14713,712.37095 c 0,0 -53.09884,-55.82026 -138.48052,-141.80113 C 123.29881,554.08717 95.062686,521.06317 63.667771,471.05996 32.272869,421.05676 25.508156,370.46112 27.265545,336.54104 29.767649,288.24723 54.466704,227.45093 67.211965,202.82424 92.24376,154.45726 142.66935,114.7966 191.04833,87.087144 246.9289,55.081082 324.304,34.545019 384.47426,33.777042 440.115,33.066861 539.57214,71.047308 561.03975,83.858196 c 21.4676,12.810856 90.20128,61.546474 116.3515,102.222924 26.15019,40.67643 36.76964,96.36102 40.68683,142.68855 3.15689,37.33484 -7.92278,94.77115 -29.78281,134.29909 -36.38411,65.79085 -50.08837,72.97395 -89.03955,115.1669 C 560.30455,620.42861 451.8552,712.84117 451.8552,712.84117 Z"
       style="fill:none;fill-rule:evenodd;stroke:#000000;stroke-width:7.70414877;stroke-linecap:round;stroke-linejoin:miter;stroke-miterlimit:4;stroke-dasharray:46.22489251, 46.22489251;stroke-dashoffset:0;stroke-opacity:1" />
    <path
       sodipodi:nodetypes="czc"
       inkscape:connector-curvature="0"
       id="path4285"
       d="m 423.02706,711.23325 c 0,0 165.26216,-109.73893 183.20459,-332.17024 C 624.17408,156.63169 449.96891,42.214331 449.96891,42.214331"
       style="fill:none;fill-rule:evenodd;stroke:#000000;stroke-width:7.45562792;stroke-linecap:butt;stroke-linejoin:miter;stroke-miterlimit:4;stroke-dasharray:none;stroke-opacity:1" />
    <path
       sodipodi:nodetypes="czc"
       inkscape:connector-curvature="0"
       id="path4287"
       d="m 258.68174,56.24969 c 0,0 -119.02676,84.53986 -118.5442,311.11719 0.48256,226.57736 185.89882,336.84868 185.89882,336.84868"
       style="fill:none;fill-rule:evenodd;stroke:#000000;stroke-width:7.45562792;stroke-linecap:round;stroke-linejoin:round;stroke-miterlimit:4;stroke-dasharray:none;stroke-opacity:1" />
    <path
       style="fill:#ffcc00;fill-opacity:0.69461078;stroke:none;stroke-width:6;stroke-linecap:round;stroke-linejoin:round;stroke-miterlimit:4;stroke-dasharray:18, 18;stroke-dashoffset:0;stroke-opacity:1"
       d="m 289.23948,505.52918 c -42.78133,-8.68945 -78.80141,-16.68207 -80.0446,-17.76149 -2.44572,-2.12349 -11.96607,-70.24463 -25.20032,-180.31649 -4.58721,-38.15263 -9.83734,-75.86706 -11.66695,-83.80983 l -3.32654,-14.44141 203.1656,0 203.16562,0 -3.14029,12.86576 c -1.72717,7.07612 -10.22688,69.37749 -18.88825,138.44748 -8.66134,69.06997 -16.69347,126.40276 -17.84916,127.40616 -1.84349,1.60064 -128.96996,27.16526 -157.65416,31.70364 -5.92717,0.93778 -45.77965,-5.40444 -88.56095,-14.09382 z m 169.38654,-21.687 48.49533,-10.3096 14.54385,-107.60442 c 7.9991,-59.18244 14.66722,-113.39405 14.81802,-120.4702 l 0.27416,-12.86577 -83.51973,0 -83.51976,0 0,133.74719 0,133.74715 20.2064,-2.96737 c 11.11352,-1.63208 42.02931,-7.60674 68.70173,-13.27698 z m -99.68488,-124.93171 0,-93.56909 -21.55347,0 -21.5535,0 0,72.51604 c 0,78.81948 1.43817,75.7828 -32.33023,68.26555 -51.19869,-11.39747 -48.49533,-11.84998 -48.49533,8.11777 l 0,18.08095 47.14824,9.54385 c 25.93155,5.24911 53.81635,9.78464 61.96628,10.07892 l 14.81801,0.53509 0,-93.56908 z"
       id="path5389"
       inkscape:connector-curvature="0" />
    <path
       style="fill:#ffe680;fill-opacity:1;stroke:none;stroke-width:6;stroke-linecap:round;stroke-linejoin:round;stroke-miterlimit:4;stroke-dasharray:18, 18;stroke-dashoffset:0;stroke-opacity:1"
       d="m 375.10627,365.42122 0,-132.82903 81.15574,0 81.1557,0 -3.15001,19.88345 c -1.73248,10.93586 -7.92338,57.7789 -13.75751,104.0956 -15.84988,125.83078 -13.38918,117.69841 -36.6566,121.14787 -10.91156,1.61766 -39.84355,6.89894 -64.29325,11.73616 l -44.45407,8.79497 0,-132.82902 z m 74.69141,78.99367 c 52.16685,-9.38777 51.35245,-8.45017 56.63554,-65.20249 3.24887,-34.90007 2.73692,-38.03802 -5.96143,-36.53986 -5.23356,0.9014 -23.45795,2.66628 -40.49866,3.92195 l -30.98317,2.283 0,-23.05424 0,-23.05423 42.49541,0 42.4954,0 2.66415,-15.20496 c 1.46529,-8.36275 1.5974,-16.784 0.29357,-18.71383 -1.30382,-1.92987 -31.32467,-3.50885 -66.71304,-3.50885 l -64.34245,0 0,63.4744 c 0,58.23818 0.77788,63.27835 9.42964,61.09783 5.18632,-1.30709 23.37207,-3.79684 40.41279,-5.53276 30.55287,-3.11241 30.98315,-2.99093 30.98315,8.74727 0,10.754 -2.99197,12.41843 -30.98315,17.23584 -50.29594,8.65618 -49.84243,8.41908 -49.84243,26.05627 0,19.15026 1.13527,19.29225 63.91468,7.99466 z"
       id="path5391"
       inkscape:connector-curvature="0" />
    <path
       style="fill:#f4e3d7;fill-opacity:1;stroke:none;stroke-width:6;stroke-linecap:round;stroke-linejoin:round;stroke-miterlimit:4;stroke-dasharray:18, 18;stroke-dashoffset:0;stroke-opacity:1"
       d="m 310.44581,443.50398 c -74.4205,-14.96532 -70.04884,-13.16441 -70.04884,-28.85646 0,-11.34159 1.93064,-13.78954 9.42966,-11.9563 5.18632,1.26789 17.91634,3.67223 28.28895,5.343 10.37264,1.6708 23.10264,4.07517 28.28896,5.34301 8.69049,2.12453 9.42963,-3.40372 9.42963,-70.52607 l 0,-72.83133 18.8593,0 18.85932,0 0,91.22985 c 0,50.17642 -0.6062,91.03886 -1.34711,90.80542 -0.7409,-0.23345 -19.53284,-4.08143 -41.75987,-8.55112 z"
       id="path5393"
       inkscape:connector-curvature="0" />
    <path
       style="fill:#f4e3d7;fill-opacity:1;stroke:none;stroke-width:6;stroke-linecap:round;stroke-linejoin:round;stroke-miterlimit:4;stroke-dasharray:18, 18;stroke-dashoffset:0;stroke-opacity:1"
       d="m 391.27139,435.15091 c 0,-13.54557 1.00857,-14.0785 37.30125,-19.70988 37.67101,-5.8452 43.52431,-9.79549 43.52431,-29.37369 0,-8.64862 -2.30716,-9.23075 -25.59479,-6.45784 -14.0771,1.67619 -32.26284,4.18781 -40.41276,5.58139 l -14.81801,2.53376 0,-58.85242 0,-58.8524 62.32418,0 62.32416,0 -1.70501,12.86575 c -1.67138,12.61225 -2.55434,12.91182 -44.81195,15.20498 l -43.10697,2.33923 0,25.63976 0,25.63975 24.24765,-1.24737 c 13.33624,-0.68609 31.2251,-2.45004 39.75302,-3.91991 l 15.50538,-2.67254 -3.71812,36.76084 c -2.04491,20.21843 -4.88588,40.29054 -6.31325,44.60466 -2.56635,7.75672 -30.3439,14.93569 -81.59853,21.08874 -22.52077,2.70361 -22.90056,2.51828 -22.90056,-11.17281 z"
       id="path5395"
       inkscape:connector-curvature="0" />
  </g>
</svg>
