<?xml version="1.0" encoding="UTF-8" standalone="no"?>
<!-- Created with Inkscape (http://www.inkscape.org/) -->

<svg
   xmlns:osb="http://www.openswatchbook.org/uri/2009/osb"
   xmlns:dc="http://purl.org/dc/elements/1.1/"
   xmlns:cc="http://creativecommons.org/ns#"
   xmlns:rdf="http://www.w3.org/1999/02/22-rdf-syntax-ns#"
   xmlns:svg="http://www.w3.org/2000/svg"
   xmlns="http://www.w3.org/2000/svg"
   xmlns:sodipodi="http://sodipodi.sourceforge.net/DTD/sodipodi-0.dtd"
   xmlns:inkscape="http://www.inkscape.org/namespaces/inkscape"
   width="210mm"
   height="297mm"
   viewBox="0 0 744.09448819 1052.3622047"
   id="svg2"
   version="1.1"
   inkscape:version="0.91 r13725"
   sodipodi:docname="globoJS.svg">
  <defs
     id="defs4">
    <linearGradient
       id="linearGradient4258"
       osb:paint="solid">
      <stop
         style="stop-color:#000000;stop-opacity:1;"
         offset="0"
         id="stop4260" />
    </linearGradient>
  </defs>
  <sodipodi:namedview
     id="base"
     pagecolor="#ffffff"
     bordercolor="#666666"
     borderopacity="1.0"
     inkscape:pageopacity="0.0"
     inkscape:pageshadow="2"
     inkscape:zoom="0.49497475"
     inkscape:cx="270.93631"
     inkscape:cy="877.63573"
     inkscape:document-units="px"
     inkscape:current-layer="layer2"
     showgrid="false"
     inkscape:window-width="1020"
     inkscape:window-height="561"
     inkscape:window-x="0"
     inkscape:window-y="18"
     inkscape:window-maximized="0" />
  <metadata
     id="metadata7">
    <rdf:RDF>
      <cc:Work
         rdf:about="">
        <dc:format>image/svg+xml</dc:format>
        <dc:type
           rdf:resource="http://purl.org/dc/dcmitype/StillImage" />
        <dc:title></dc:title>
      </cc:Work>
    </rdf:RDF>
  </metadata>
  <g
     inkscape:label="Layer 1"
     inkscape:groupmode="layer"
     id="layer1"
     style="display:inline">
    <path
       style="fill:none;fill-rule:evenodd;stroke:#000000;stroke-width:4;stroke-linecap:butt;stroke-linejoin:miter;stroke-miterlimit:4;stroke-dasharray:24, 4;stroke-dashoffset:0;stroke-opacity:1"
       d="m 419.6257,399.61932 61.92969,-0.92938 -0.79334,-35.88285 -62.91004,-0.36993 z"
       id="path3340"
       inkscape:connector-curvature="0"
       sodipodi:nodetypes="ccccc" />
    <path
       style="fill:#d4aa00;fill-opacity:1;stroke:none;stroke-width:4;stroke-linejoin:round;stroke-miterlimit:4;stroke-dasharray:24, 4;stroke-dashoffset:0;stroke-opacity:0.91372549"
       d="m 420.29577,393.96406 c -0.0554,-2.72371 -0.39629,-10.74857 -0.75761,-17.83303 l -0.65696,-12.88083 28.28428,0.0152 c 15.55634,0.008 29.27639,0.28125 30.48898,0.60646 2.13328,0.57212 2.21509,1.11986 2.52538,16.90626 0.17637,8.97324 0.31265,16.39876 0.30285,16.50116 -0.01,0.10239 -13.53321,0.51261 -30.05204,0.91158 l -30.03422,0.72541 -0.10066,-4.95219 z"
       id="path4144"
       inkscape:connector-curvature="0" />
    <path
       style="fill:none;fill-rule:evenodd;stroke:#000000;stroke-width:1px;stroke-linecap:butt;stroke-linejoin:miter;stroke-opacity:1"
       d="m 482.85292,397.78336 -14.14214,57.5787"
       id="path4246"
       inkscape:connector-curvature="0"
       sodipodi:nodetypes="cc" />
    <path
       style="fill:none;fill-rule:evenodd;stroke:#000000;stroke-width:1.00375748px;stroke-linecap:butt;stroke-linejoin:miter;stroke-opacity:1"
       d="m 417.20299,399.80931 17.15261,57.56741"
       id="path4248"
       inkscape:connector-curvature="0"
       sodipodi:nodetypes="cc" />
    <path
       style="fill:none;fill-rule:evenodd;stroke:#000000;stroke-width:1px;stroke-linecap:butt;stroke-linejoin:miter;stroke-opacity:1"
       d="m 449.51789,401.82397 1.01015,51.51778"
       id="path4250"
       inkscape:connector-curvature="0"
       sodipodi:nodetypes="cc" />
    <rect
       style="fill:#786721;fill-opacity:1;stroke:#060202;stroke-width:3;stroke-linecap:round;stroke-linejoin:round;stroke-miterlimit:4;stroke-dasharray:24, 24;stroke-dashoffset:0;stroke-opacity:1"
       id="rect4252"
       width="38.385796"
       height="28.284271"
       x="431.33514"
       y="455.36206" />
  </g>
  <g
     inkscape:groupmode="layer"
     id="layer2"
     inkscape:label="Layer 2"
     style="display:inline">
    <path
       style="display:inline;fill:#ffdd55;fill-opacity:1;stroke:none;stroke-width:3.13147283;stroke-linejoin:round;stroke-miterlimit:4;stroke-dasharray:none;stroke-dashoffset:0;stroke-opacity:1"
       d="m 409.1681,351.41495 c -3.54713,-4.28857 -16.1646,-19.17569 -28.03881,-33.08249 -23.27582,-27.2601 -28.06693,-33.57534 -38.15616,-50.2943 -14.36046,-23.79686 -19.36887,-38.84917 -20.24808,-60.85376 -0.45755,-11.45134 -0.19322,-14.75075 2.0654,-25.78046 2.74003,-13.3806 9.10438,-33.13806 13.45685,-41.77537 10.94085,-21.71171 35.58899,-44.304523 61.27676,-56.167105 26.42698,-12.203948 52.68749,-16.041489 73.52332,-10.74422 19.53595,4.966788 40.94916,14.332277 51.89984,22.699413 8.29895,6.341012 26.03567,23.635772 31.50973,30.724562 9.2154,11.93376 15.52065,29.49855 19.00025,52.92974 6.16391,41.507 -4.61685,76.73464 -34.72579,113.47133 -13.07216,15.94969 -22.97269,26.82244 -43.45027,47.71706 l -18.57471,18.95301 -31.54449,0 -31.5445,0 -6.44934,-7.79741 z"
       id="path4142"
       inkscape:connector-curvature="0" />
    <path
       style="display:inline;fill:#ffffff;fill-rule:evenodd;stroke:none;stroke-width:1px;stroke-linecap:butt;stroke-linejoin:miter;stroke-opacity:1"
       d="m 326.27927,226.05742 c 0,0 29.91059,-30.85973 119.19799,-33.33503 89.2874,-2.47531 132.33,25.25381 132.33,25.25381 0,0 -30.19574,-87.29435 -133.34014,-85.86296 -103.14441,1.43138 -118.18785,93.94418 -118.18785,93.94418 z"
       id="path4255"
       inkscape:connector-curvature="0"
       sodipodi:nodetypes="czczc" />
  </g>
  <g
     inkscape:groupmode="layer"
     id="layer3"
     inkscape:label="Layer 3">
    <path
       style="fill:none;fill-rule:evenodd;stroke:#000000;stroke-width:3.0999999;stroke-linecap:round;stroke-linejoin:miter;stroke-miterlimit:4;stroke-dasharray:18.59999943, 18.59999943000000044;stroke-opacity:1;stroke-dashoffset:0"
       d="m 414.3898,360.89901 c 0,0 -19.90878,-24.10496 -51.92161,-61.23423 -6.13691,-7.11774 -16.7237,-21.37855 -28.49485,-42.97152 -11.77115,-21.59297 -14.30749,-43.44178 -13.64858,-58.08955 0.93813,-20.8548 10.19875,-47.10858 14.97743,-57.74316 9.38537,-20.8864 28.29184,-38.01314 46.43096,-49.978964 20.95175,-13.821231 49.96261,-22.689352 72.52273,-23.020994 20.86183,-0.306676 58.15209,16.094491 66.20111,21.626633 8.04902,5.532142 33.81989,26.577725 43.62459,44.143105 9.8047,17.56538 13.78634,41.61176 15.25505,61.61745 1.18363,16.12239 -2.97056,40.9252 -11.16671,57.99462 -13.64179,28.41058 -18.78003,31.51247 -33.38431,49.73273 -14.60428,18.22026 -55.26606,58.12693 -55.26606,58.12693 z"
       id="path3336"
       inkscape:connector-curvature="0"
       sodipodi:nodetypes="cszsssszzsszcc" />
    <path
       style="fill:none;fill-rule:evenodd;stroke:#000000;stroke-width:3;stroke-linecap:butt;stroke-linejoin:miter;stroke-opacity:1;stroke-miterlimit:4;stroke-dasharray:none"
       d="m 468.71078,360.40771 c 0,0 61.96307,-47.38875 68.69037,-143.44166 6.7273,-96.05291 -58.58884,-145.461967 -58.58884,-145.461967"
       id="path4240"
       inkscape:connector-curvature="0"
       sodipodi:nodetypes="czc" />
    <path
       style="fill:none;fill-rule:evenodd;stroke:#000000;stroke-width:3;stroke-linecap:round;stroke-linejoin:round;stroke-opacity:1;stroke-miterlimit:4;stroke-dasharray:none"
       d="m 407.09148,77.564998 c 0,0 -44.62765,36.506992 -44.44672,134.350292 0.18093,97.8433 69.70053,145.46196 69.70053,145.46196"
       id="path4242"
       inkscape:connector-curvature="0"
       sodipodi:nodetypes="czc" />
    <path
       style="fill:none;fill-rule:evenodd;stroke:#000000;stroke-width:3;stroke-linecap:butt;stroke-linejoin:miter;stroke-opacity:1;stroke-miterlimit:4;stroke-dasharray:none"
       d="m 446.48743,67.463473 -0.5104,146.484417 -0.49976,143.42936"
       id="path4244"
       inkscape:connector-curvature="0"
       sodipodi:nodetypes="ccc" />
    <path
       sodipodi:nodetypes="cszsssszzsszcc"
       inkscape:connector-curvature="0"
       id="path4283"
       d="m 414.3898,360.89901 c 0,0 -19.90878,-24.10496 -51.92161,-61.23423 -6.13691,-7.11774 -16.7237,-21.37855 -28.49485,-42.97152 -11.77115,-21.59297 -14.30749,-43.44178 -13.64858,-58.08955 0.93813,-20.8548 10.19875,-47.10858 14.97743,-57.74316 9.38537,-20.8864 28.29184,-38.01314 46.43096,-49.978964 20.95175,-13.821231 49.96261,-22.689352 72.52273,-23.020994 20.86183,-0.306676 58.15209,16.094491 66.20111,21.626633 8.04902,5.532142 33.81989,26.577725 43.62459,44.143105 9.8047,17.56538 13.78634,41.61176 15.25505,61.61745 1.18363,16.12239 -2.97056,40.9252 -11.16671,57.99462 -13.64179,28.41058 -18.78003,31.51247 -33.38431,49.73273 -14.60428,18.22026 -55.26606,58.12693 -55.26606,58.12693 z"
       style="fill:none;fill-rule:evenodd;stroke:#000000;stroke-width:3.0999999;stroke-linecap:round;stroke-linejoin:miter;stroke-miterlimit:4;stroke-dasharray:18.59999943, 18.59999943000000044;stroke-opacity:1;stroke-dashoffset:0" />
    <path
       sodipodi:nodetypes="czc"
       inkscape:connector-curvature="0"
       id="path4285"
       d="m 468.71078,360.40771 c 0,0 61.96307,-47.38875 68.69037,-143.44166 6.7273,-96.05291 -58.58884,-145.461967 -58.58884,-145.461967"
       style="fill:none;fill-rule:evenodd;stroke:#000000;stroke-width:3;stroke-linecap:butt;stroke-linejoin:miter;stroke-opacity:1;stroke-miterlimit:4;stroke-dasharray:none" />
    <path
       sodipodi:nodetypes="czc"
       inkscape:connector-curvature="0"
       id="path4287"
       d="m 407.09148,77.564998 c 0,0 -44.62765,36.506992 -44.44672,134.350292 0.18093,97.8433 69.70053,145.46196 69.70053,145.46196"
       style="fill:none;fill-rule:evenodd;stroke:#000000;stroke-width:3;stroke-linecap:round;stroke-linejoin:round;stroke-opacity:1;stroke-miterlimit:4;stroke-dasharray:none" />
    <path
       style="fill:#ffcc00;fill-opacity:0.69461077;stroke:none;stroke-width:6;stroke-linecap:round;stroke-linejoin:round;stroke-miterlimit:4;stroke-dasharray:18, 18;stroke-dashoffset:0;stroke-opacity:1"
       d="m 418.54874,271.57816 c -16.04035,-3.75237 -29.54564,-7.20385 -30.01176,-7.66997 -0.91699,-0.91699 -4.48653,-30.33386 -9.44856,-77.8664 -1.71992,-16.47551 -3.68839,-32.7618 -4.37438,-36.19174 l -1.24725,-6.23627 76.1745,0 76.17451,0 -1.17741,5.55584 c -0.64758,3.05571 -3.83444,29.95942 -7.08192,59.78603 -3.24747,29.82661 -6.25902,54.58473 -6.69233,55.01803 -0.69119,0.6912 -48.35574,11.73082 -59.11053,13.69064 -2.22233,0.40497 -17.16453,-2.3338 -33.20487,-6.08616 z m 63.50945,-9.36514 18.18274,-4.45201 5.45304,-46.46701 c 2.99917,-25.55686 5.4993,-48.96715 5.55584,-52.02286 l 0.1028,-5.55584 -31.31473,0 -31.31473,0 0,57.75628 0,57.75627 7.57615,-1.28141 c 4.16688,-0.70478 15.75838,-3.28482 25.75889,-5.73342 z m -37.37565,-53.94948 0,-40.4061 -8.08122,0 -8.08122,0 0,31.31473 c 0,34.03675 0.53922,32.72542 -12.12183,29.47923 -19.19633,-4.92179 -18.18274,-5.1172 -18.18274,3.50552 l 0,7.80792 17.67767,4.12134 c 9.72272,2.26674 20.17779,4.22532 23.23351,4.3524 l 5.55583,0.23106 0,-40.4061 z"
       id="path5389"
       inkscape:connector-curvature="0" />
    <path
       style="fill:#ffe680;fill-opacity:1;stroke:none;stroke-width:6;stroke-linecap:round;stroke-linejoin:round;stroke-miterlimit:4;stroke-dasharray:18, 18;stroke-dashoffset:0;stroke-opacity:1"
       d="m 450.74346,211.0751 0,-57.3598 30.42837,0 30.42836,0 -1.18106,8.5863 c -0.64958,4.72246 -2.97078,24.95077 -5.15821,44.95179 -5.94273,54.33773 -5.02012,50.82591 -13.74396,52.3155 -4.09116,0.69856 -14.93885,2.97918 -24.10598,5.06805 l -16.66752,3.79795 0,-57.35979 z m 28.00465,34.11197 c 19.55933,-4.05394 19.25398,-3.64905 21.23482,-28.15651 1.21812,-15.07096 1.02617,-16.42602 -2.23517,-15.77907 -1.96226,0.38926 -8.79528,1.15138 -15.18449,1.69362 l -11.61676,0.98587 0,-9.95555 0,-9.95555 15.93314,0 15.93314,0 0.99889,-6.56599 c 0.54939,-3.6113 0.59893,-7.24785 0.11007,-8.08122 -0.48885,-0.83338 -11.74481,-1.51523 -25.01325,-1.51523 l -24.12443,0 0,27.41026 c 0,25.1491 0.29166,27.3256 3.53553,26.38399 1.94455,-0.56445 8.76308,-1.6396 15.15229,-2.38923 11.45543,-1.34404 11.61676,-1.29158 11.61676,3.77735 0,4.64392 -1.1218,5.36267 -11.61676,7.44299 -18.85786,3.73801 -18.68782,3.63562 -18.68782,11.25192 0,8.26969 0.42566,8.33101 23.96404,3.45235 z"
       id="path5391"
       inkscape:connector-curvature="0" />
    <path
       style="fill:#f4e3d7;fill-opacity:1;stroke:none;stroke-width:6;stroke-linecap:round;stroke-linejoin:round;stroke-miterlimit:4;stroke-dasharray:18, 18;stroke-dashoffset:0;stroke-opacity:1"
       d="m 426.4998,244.79371 c -27.90307,-6.4625 -26.26397,-5.68481 -26.26397,-12.46114 0,-4.89766 0.72387,-5.95476 3.53554,-5.16311 1.94454,0.54751 6.71751,1.58579 10.6066,2.30728 3.88909,0.7215 8.66206,1.75978 10.6066,2.30728 3.2584,0.91744 3.53553,-1.46984 3.53553,-30.4554 l 0,-31.45088 7.07107,0 7.07107,0 0,39.39595 c 0,21.66777 -0.22728,39.31347 -0.50508,39.21266 -0.27779,-0.1008 -7.3236,-1.76249 -15.65736,-3.69264 z"
       id="path5393"
       inkscape:connector-curvature="0" />
    <path
       style="fill:#f4e3d7;fill-opacity:1;stroke:none;stroke-width:6;stroke-linecap:round;stroke-linejoin:round;stroke-miterlimit:4;stroke-dasharray:18, 18;stroke-dashoffset:0;stroke-opacity:1"
       d="m 456.80438,241.18659 c 0,-5.84941 0.37815,-6.07955 13.98566,-8.51135 14.12429,-2.52415 16.31891,-4.23 16.31891,-12.6845 0,-3.73475 -0.86504,-3.98613 -9.59645,-2.7887 -5.27804,0.72383 -12.09657,1.80843 -15.15229,2.41022 l -5.55583,1.09416 0,-25.41434 0,-25.41434 23.3677,0 23.3677,0 -0.63927,5.55584 c -0.62667,5.44637 -0.95772,5.57574 -16.80171,6.56599 l -16.16244,1.01016 0,11.07206 0,11.07206 9.09137,-0.53866 c 5.00026,-0.29627 11.70747,-1.058 14.90492,-1.69274 l 5.81355,-1.15408 -1.39406,15.87449 c -0.76672,8.73097 -1.83191,17.39874 -2.36708,19.26172 -0.96222,3.34959 -11.37708,6.4497 -30.59439,9.10678 -8.44389,1.1675 -8.58629,1.08748 -8.58629,-4.82477 z"
       id="path5395"
       inkscape:connector-curvature="0" />
  </g>
</svg>
