<?xml version="1.0" encoding="UTF-8" standalone="no"?>
<!-- Created with Inkscape (http://www.inkscape.org/) -->

<svg
   xmlns:osb="http://www.openswatchbook.org/uri/2009/osb"
   xmlns:dc="http://purl.org/dc/elements/1.1/"
   xmlns:cc="http://creativecommons.org/ns#"
   xmlns:rdf="http://www.w3.org/1999/02/22-rdf-syntax-ns#"
   xmlns:svg="http://www.w3.org/2000/svg"
   xmlns="http://www.w3.org/2000/svg"
   xmlns:sodipodi="http://sodipodi.sourceforge.net/DTD/sodipodi-0.dtd"
   xmlns:inkscape="http://www.inkscape.org/namespaces/inkscape"
   width="210mm"
   height="297mm"
   viewBox="0 0 744.09448819 1052.3622047"
   id="svg2"
   version="1.1"
   inkscape:version="0.91 r13725"
   sodipodi:docname="globoHTML.svg">
  <defs
     id="defs4">
    <linearGradient
       id="linearGradient4258"
       osb:paint="solid">
      <stop
         style="stop-color:#000000;stop-opacity:1;"
         offset="0"
         id="stop4260" />
    </linearGradient>
  </defs>
  <sodipodi:namedview
     id="base"
     pagecolor="#ffffff"
     bordercolor="#666666"
     borderopacity="1.0"
     inkscape:pageopacity="0.0"
     inkscape:pageshadow="2"
     inkscape:zoom="0.0875"
     inkscape:cx="-212.05524"
     inkscape:cy="795.59256"
     inkscape:document-units="px"
     inkscape:current-layer="layer4"
     showgrid="false"
     inkscape:window-width="1020"
     inkscape:window-height="507"
     inkscape:window-x="0"
     inkscape:window-y="72"
     inkscape:window-maximized="0" />
  <metadata
     id="metadata7">
    <rdf:RDF>
      <cc:Work
         rdf:about="">
        <dc:format>image/svg+xml</dc:format>
        <dc:type
           rdf:resource="http://purl.org/dc/dcmitype/StillImage" />
        <dc:title />
      </cc:Work>
    </rdf:RDF>
  </metadata>
  <g
     inkscape:label="Layer 1"
     inkscape:groupmode="layer"
     id="layer1"
     style="display:inline">
    <path
       style="fill:none;fill-rule:evenodd;stroke:#000000;stroke-width:9.53070927;stroke-linecap:butt;stroke-linejoin:miter;stroke-miterlimit:4;stroke-dasharray:57.184257, 9.5307095;stroke-dashoffset:0;stroke-opacity:1"
       d="m 307.93377,790.51955 161.88122,-2.01847 -2.07376,-77.93274 -164.44379,-0.80344 z"
       id="path3340"
       inkscape:connector-curvature="0"
       sodipodi:nodetypes="ccccc" />
    <path
       style="fill:#d72500;fill-opacity:1;stroke:none;stroke-width:4;stroke-linejoin:round;stroke-miterlimit:4;stroke-dasharray:24, 4;stroke-dashoffset:0;stroke-opacity:0.91372549"
       d="m 309.68531,778.23709 c -0.14482,-5.91553 -1.03589,-23.34445 -1.98036,-38.73094 l -1.71726,-27.97543 73.93374,0.033 c 40.66352,0.0173 76.52707,0.61084 79.69671,1.31715 5.5763,1.24257 5.79014,2.43219 6.60123,36.71813 0.46102,19.48866 0.81724,35.61589 0.79163,35.8383 -0.0261,0.22237 -35.37515,1.11331 -78.55458,1.97983 l -78.508,1.57549 -0.26311,-10.7555 z"
       id="path4144"
       inkscape:connector-curvature="0" />
    <path
       style="fill:none;fill-rule:evenodd;stroke:#000000;stroke-width:2.38267732px;stroke-linecap:butt;stroke-linejoin:miter;stroke-opacity:1"
       d="M 473.20666,786.5321 436.2398,911.58529"
       id="path4246"
       inkscape:connector-curvature="0"
       sodipodi:nodetypes="cc" />
    <path
       style="fill:none;fill-rule:evenodd;stroke:#000000;stroke-width:2.39163041px;stroke-linecap:butt;stroke-linejoin:miter;stroke-opacity:1"
       d="m 301.60093,790.93219 44.8361,125.02868"
       id="path4248"
       inkscape:connector-curvature="0"
       sodipodi:nodetypes="cc" />
    <path
       style="fill:none;fill-rule:evenodd;stroke:#000000;stroke-width:2.38267732px;stroke-linecap:butt;stroke-linejoin:miter;stroke-opacity:1"
       d="m 386.07052,795.30776 2.64047,111.88969"
       id="path4250"
       inkscape:connector-curvature="0"
       sodipodi:nodetypes="cc" />
    <rect
       style="fill:#f3880c;fill-opacity:1;stroke:#060202;stroke-width:7.14803219;stroke-linecap:round;stroke-linejoin:round;stroke-miterlimit:4;stroke-dasharray:57.184257, 57.184257;stroke-dashoffset:0;stroke-opacity:1"
       id="rect4252"
       width="100.33861"
       height="61.429634"
       x="338.54169"
       y="911.58527" />
  </g>
  <g
     inkscape:groupmode="layer"
     id="layer2"
     inkscape:label="Layer 2"
     style="display:inline">
    <path
       style="display:inline;fill:#f06b06;fill-opacity:1;stroke:none;stroke-width:3.13147283;stroke-linejoin:round;stroke-miterlimit:4;stroke-dasharray:none;stroke-dashoffset:0;stroke-opacity:1"
       d="M 280.59811,685.82614 C 271.3261,676.51195 238.34464,644.17912 207.30603,613.97542 146.46415,554.77015 133.94042,541.0543 107.56767,504.74297 70.030123,453.05938 56.938381,420.36779 54.640169,372.57679 53.444156,347.70601 54.1351,340.54014 60.039025,316.58509 67.20133,287.52422 83.837433,244.61367 95.214579,225.8546 123.81343,178.69968 188.24247,129.63114 255.38907,103.8672 324.46791,77.361864 393.11161,69.027241 447.57547,80.532198 c 51.06602,10.787195 107.03911,31.127782 135.66366,49.300072 21.69306,13.77182 68.05598,51.33372 82.36491,66.72962 24.08861,25.91852 40.57023,64.06688 49.66574,114.95628 16.11215,90.14763 -12.06822,166.65733 -90.77154,246.44447 -34.17,34.64059 -60.0495,58.25473 -113.5769,103.63504 l -48.55339,41.1634 -82.45577,0 -82.4558,0 -16.85827,-16.93494 z"
       id="path4142"
       inkscape:connector-curvature="0" />
    <path
       style="display:inline;fill:#ffffff;fill-rule:evenodd;stroke:none;stroke-width:1px;stroke-linecap:butt;stroke-linejoin:miter;stroke-opacity:1"
       d="m 63.930728,413.56644 c 0,0 78.184832,-67.02318 311.577782,-72.3992 233.39293,-5.37604 345.9042,54.84788 345.9042,54.84788 0,0 -78.93019,-189.59159 -348.54466,-186.48281 -269.6145,3.10877 -308.937322,204.03413 -308.937322,204.03413 z"
       id="path4255"
       inkscape:connector-curvature="0"
       sodipodi:nodetypes="czczc" />
  </g>
  <g
     inkscape:groupmode="layer"
     id="layer3"
     inkscape:label="Layer 3">
    <path
       style="fill:none;fill-rule:evenodd;stroke:#000000;stroke-width:7.38629961;stroke-linecap:round;stroke-linejoin:miter;stroke-miterlimit:4;stroke-dasharray:44.31779783, 44.31779783;stroke-dashoffset:0;stroke-opacity:1"
       d="m 294.24738,706.42425 c 0,0 -52.04058,-52.35273 -135.72057,-132.99252 C 142.48523,557.97296 114.81187,527.0004 84.042655,480.10337 53.273439,433.20634 46.643568,385.75366 48.365927,353.94068 50.818153,308.64686 75.024965,251.62717 87.516204,228.5303 112.04911,183.16784 161.46971,145.97086 208.88448,119.9827 263.65135,89.964849 339.48433,70.704482 398.45539,69.9842 c 54.53182,-0.666059 152.00675,34.95507 173.0465,46.97013 21.03975,12.01508 88.40355,57.72326 114.03256,95.8729 25.62901,38.14964 36.03684,90.37515 39.87597,133.82482 3.09395,35.01566 -7.76491,88.88403 -29.18924,125.95651 -35.65898,61.70397 -49.09009,68.44086 -87.26498,108.01281 -38.17488,39.57196 -144.46279,126.24388 -144.46279,126.24388 z"
       id="path3336"
       inkscape:connector-curvature="0"
       sodipodi:nodetypes="cszsssszzsszcc" />
    <path
       style="fill:none;fill-rule:evenodd;stroke:#000000;stroke-width:7.14803219;stroke-linecap:butt;stroke-linejoin:miter;stroke-miterlimit:4;stroke-dasharray:none;stroke-opacity:1"
       d="m 436.2398,705.35721 c 0,0 161.96846,-102.92199 179.5533,-311.536 C 633.37794,185.20721 462.64472,77.897373 462.64472,77.897373"
       id="path4240"
       inkscape:connector-curvature="0"
       sodipodi:nodetypes="czc" />
    <path
       style="fill:none;fill-rule:evenodd;stroke:#000000;stroke-width:7.14803219;stroke-linecap:round;stroke-linejoin:round;stroke-miterlimit:4;stroke-dasharray:none;stroke-opacity:1"
       d="m 275.16993,91.060865 c 0,0 -116.65451,79.288275 -116.18157,291.790775 0.47294,212.5025 182.19381,315.92382 182.19381,315.92382"
       id="path4242"
       inkscape:connector-curvature="0"
       sodipodi:nodetypes="czc" />
    <path
       style="fill:none;fill-rule:evenodd;stroke:#000000;stroke-width:7.14803219;stroke-linecap:butt;stroke-linejoin:miter;stroke-miterlimit:4;stroke-dasharray:none;stroke-opacity:1"
       d="m 378.14903,69.121711 -1.33415,318.144459 -1.30635,311.50929"
       id="path4244"
       inkscape:connector-curvature="0"
       sodipodi:nodetypes="ccc" />
    <path
       sodipodi:nodetypes="cszsssszzsszcc"
       inkscape:connector-curvature="0"
       id="path4283"
       d="m 294.24738,706.42425 c 0,0 -52.04058,-52.35273 -135.72057,-132.99252 C 142.48523,557.97296 114.81187,527.0004 84.042655,480.10337 53.273439,433.20634 46.643568,385.75366 48.365927,353.94068 50.818153,308.64686 75.024965,251.62717 87.516204,228.5303 112.04911,183.16784 161.46971,145.97086 208.88448,119.9827 263.65135,89.964849 339.48433,70.704482 398.45539,69.9842 c 54.53182,-0.666059 152.00675,34.95507 173.0465,46.97013 21.03975,12.01508 88.40355,57.72326 114.03256,95.8729 25.62901,38.14964 36.03684,90.37515 39.87597,133.82482 3.09395,35.01566 -7.76491,88.88403 -29.18924,125.95651 -35.65898,61.70397 -49.09009,68.44086 -87.26498,108.01281 -38.17488,39.57196 -144.46279,126.24388 -144.46279,126.24388 z"
       style="fill:none;fill-rule:evenodd;stroke:#000000;stroke-width:7.38629961;stroke-linecap:round;stroke-linejoin:miter;stroke-miterlimit:4;stroke-dasharray:44.31779783, 44.31779783;stroke-dashoffset:0;stroke-opacity:1" />
    <path
       sodipodi:nodetypes="czc"
       inkscape:connector-curvature="0"
       id="path4285"
       d="m 436.2398,705.35721 c 0,0 161.96846,-102.92199 179.5533,-311.536 C 633.37794,185.20721 462.64472,77.897373 462.64472,77.897373"
       style="fill:none;fill-rule:evenodd;stroke:#000000;stroke-width:7.14803219;stroke-linecap:butt;stroke-linejoin:miter;stroke-miterlimit:4;stroke-dasharray:none;stroke-opacity:1" />
    <path
       sodipodi:nodetypes="czc"
       inkscape:connector-curvature="0"
       id="path4287"
       d="m 275.16993,91.060865 c 0,0 -116.65451,79.288275 -116.18157,291.790775 0.47294,212.5025 182.19381,315.92382 182.19381,315.92382"
       style="fill:none;fill-rule:evenodd;stroke:#000000;stroke-width:7.14803219;stroke-linecap:round;stroke-linejoin:round;stroke-miterlimit:4;stroke-dasharray:none;stroke-opacity:1" />
  </g>
  <g
     inkscape:groupmode="layer"
     id="layer4"
     inkscape:label="Layer 4">
    <g
       id="g7662"
       transform="matrix(0.7832919,0,0,0.69180475,192.03514,187.33363)"
       style="display:inline;fill:#d45500">
      <g
         id="g7664"
         style="fill:#d45500">
        <path
           id="path7666"
           d="m 119.387,20.312 21.298,0 0,21.045 19.485,0 0,-21.045 21.303,0 0,63.727 -21.303,0 0,-21.339 -19.485,0 0,21.338 -21.298,0 0,-63.726 z"
           inkscape:connector-curvature="0"
           style="fill:#d45500" />
        <path
           id="path7668"
           d="m 209.482,41.444 -18.754,0 0,-21.132 58.812,0 0,21.133 -18.759,0 0,42.594 -21.3,0 0,-42.595 z"
           inkscape:connector-curvature="0"
           style="fill:#d45500" />
        <path
           id="path7670"
           d="m 258.879,20.312 22.21,0 13.661,22.392 13.648,-22.392 22.219,0 0,63.727 -21.212,0 0,-31.586 -14.655,22.658 -0.366,0 -14.665,-22.658 0,31.585 -20.84,0 0,-63.726 z"
           inkscape:connector-curvature="0"
           style="fill:#d45500" />
        <path
           id="path7672"
           d="m 341.219,20.312 21.308,0 0,42.664 29.955,0 0,21.062 -51.263,0 0,-63.726 z"
           inkscape:connector-curvature="0"
           style="fill:#d45500" />
      </g>
      <path
         id="path7674"
         d="m 200.662,266.676 55.338,0 0,-42.92 -59.169,0 3.831,42.92 z M 88.686,111.982 l 30.47,341.74 136.762,37.966 136.891,-37.948 30.507,-341.758 -334.63,0 z M 366.694,431.981 256,462.668 l 0,-43.494 -0.067,0.02 -85.858,-23.835 -6.004,-67.298 42.075,0 3.116,34.914 46.68,12.607 0.059,-0.019 0,-66.973 -93.669,0 -11.306,-126.749 104.974,0 0,-41.914 136.766,0 -26.072,292.054 z"
         inkscape:connector-curvature="0"
         style="fill:#d45500" />
      <path
         id="path7676"
         d="m 307.592,308.59 -51.592,0 0,66.974 46.728,-12.613 4.864,-54.361 z M 256,139.927 l 0,41.914 104.975,0 -3.754,41.915 -101.221,0 0,42.92 97.406,0 -11.499,128.683 -85.907,23.815 0,43.494 110.694,-30.687 26.071,-292.055 -136.765,0 z"
         inkscape:connector-curvature="0"
         style="opacity:0.8;fill:#d45500" />
      <g
         id="g7678"
         style="opacity:0.2;fill:#d45500">
        <polygon
           id="polygon7680"
           points="256,223.756 256,181.841 151.025,181.841 162.331,308.59 256,308.59 256,266.676 200.662,266.676 196.831,223.756 "
           style="fill:#d45500" />
        <polygon
           id="polygon7682"
           points="256,419.174 256,375.563 255.941,375.582 209.262,362.975 206.146,328.061 164.07,328.061 170.074,395.358 255.933,419.193 "
           style="fill:#d45500" />
      </g>
    </g>
    <path
       style="fill:#ffffff;fill-opacity:0.43113768;stroke:none;stroke-width:6;stroke-linecap:round;stroke-linejoin:round;stroke-miterlimit:4;stroke-dasharray:18, 18;stroke-dashoffset:0;stroke-opacity:1"
       d="m 320.07485,398.11225 c -0.56367,-1.50831 -2.37263,-18.53859 -4.01992,-37.84504 -1.64728,-19.30647 -3.61965,-37.81763 -4.38304,-41.13591 l -1.38801,-6.03327 41.1374,0 41.13737,0 0,14.26044 0,14.26045 -24.12332,0 -24.12329,0 1.67915,10.17882 c 0.92354,5.59838 1.67915,12.50921 1.67915,15.35742 0,5.03601 0.61793,5.17859 22.44414,5.17859 l 22.44417,0 0,14.26044 0,14.26046 -35.72948,0 c -26.27666,0 -36.00061,-0.72556 -36.75432,-2.7424 z"
       id="path7712"
       inkscape:connector-curvature="0" />
    <path
       style="fill:#f9f9f9;fill-opacity:0.43113768;stroke:none;stroke-width:6;stroke-linecap:round;stroke-linejoin:round;stroke-miterlimit:4;stroke-dasharray:18, 18;stroke-dashoffset:0;stroke-opacity:1"
       d="m 392.55865,461.84808 0,-14.07539 18.36568,-3.95783 18.3657,-3.95781 1.31313,-9.08011 c 0.72221,-4.99405 1.94066,-13.76959 2.70771,-19.5012 l 1.3946,-10.42109 -21.0734,0 -21.07342,0 0,-14.26046 0,-14.26044 36.96687,0 36.96685,0 -0.0327,7.13021 c -0.0183,3.92163 -1.78559,23.42005 -3.92815,43.32983 -2.14252,19.9098 -3.91018,36.40403 -3.92812,36.65388 -0.04,0.55513 -48.68061,12.97768 -58.7835,15.01295 l -7.26136,1.46282 0,-14.07536 z"
       id="path7714"
       inkscape:connector-curvature="0" />
    <path
       style="fill:#f9f9f9;fill-opacity:0.43113768;stroke:none;stroke-width:6;stroke-linecap:round;stroke-linejoin:round;stroke-miterlimit:4;stroke-dasharray:18, 18;stroke-dashoffset:0;stroke-opacity:1"
       d="m 392.55865,327.35847 0,-14.26044 41.23556,0 41.23557,0 -1.59216,4.9363 c -0.87568,2.71497 -1.60837,9.13217 -1.62821,14.26045 l -0.036,9.32414 -39.60735,0 -39.60736,0 0,-14.26045 z"
       id="path7716"
       inkscape:connector-curvature="0" />
    <path
       style="fill:#ffffff;fill-opacity:0.43113768;stroke:none;stroke-width:6;stroke-linecap:round;stroke-linejoin:round;stroke-miterlimit:4;stroke-dasharray:18, 18;stroke-dashoffset:0;stroke-opacity:1"
       d="m 356.96932,467.91095 c -32.90487,-8.18522 -30.75584,-5.85154 -33.97113,-36.88996 l -1.53405,-14.80893 15.7436,0 c 14.81185,0 15.74356,0.30836 15.74356,5.21054 0,15.87411 1.99346,17.93727 21.36469,22.11179 l 18.24266,3.93132 0,13.99103 c 0,9.81713 -0.98467,13.94242 -3.3006,13.82806 -1.81534,-0.0897 -16.34527,-3.40785 -32.28873,-7.37385 z"
       id="path7718"
       inkscape:connector-curvature="0" />
  </g>
</svg>
