<?xml version="1.0" encoding="UTF-8" standalone="no"?>
<!-- Created with Inkscape (http://www.inkscape.org/) -->

<svg
   xmlns:dc="http://purl.org/dc/elements/1.1/"
   xmlns:cc="http://creativecommons.org/ns#"
   xmlns:rdf="http://www.w3.org/1999/02/22-rdf-syntax-ns#"
   xmlns:svg="http://www.w3.org/2000/svg"
   xmlns="http://www.w3.org/2000/svg"
   xmlns:sodipodi="http://sodipodi.sourceforge.net/DTD/sodipodi-0.dtd"
   xmlns:inkscape="http://www.inkscape.org/namespaces/inkscape"
   id="svg2"
   version="1.1"
   inkscape:version="0.91 r13725"
   width="1024"
   height="601"
   viewBox="0 0 1024 601"
   sodipodi:docname="muelle2.svg">
  <metadata
     id="metadata8">
    <rdf:RDF>
      <cc:Work
         rdf:about="">
        <dc:format>image/svg+xml</dc:format>
        <dc:type
           rdf:resource="http://purl.org/dc/dcmitype/StillImage" />
        <dc:title />
      </cc:Work>
    </rdf:RDF>
  </metadata>
  <defs
     id="defs6" />
  <sodipodi:namedview
     pagecolor="#ffffff"
     bordercolor="#666666"
     borderopacity="1"
     objecttolerance="10"
     gridtolerance="10"
     guidetolerance="10"
     inkscape:pageopacity="0"
     inkscape:pageshadow="2"
     inkscape:window-width="1020"
     inkscape:window-height="543"
     id="namedview4"
     showgrid="false"
     showguides="true"
     inkscape:zoom="0.731966"
     inkscape:cx="204.63532"
     inkscape:cy="412.20835"
     inkscape:window-x="0"
     inkscape:window-y="36"
     inkscape:window-maximized="0"
     inkscape:current-layer="svg2" />
  <path
     style="fill:#03b43c;fill-opacity:1;fill-rule:evenodd;stroke:none;stroke-width:1px;stroke-linecap:butt;stroke-linejoin:miter;stroke-opacity:1"
     d="m 382.8,334.2 0,-115.2 75.41132,53.19245 z"
     id="path3407"
     inkscape:connector-curvature="0"
     sodipodi:nodetypes="cccc" />
  <path
     style="fill:#6f917c;fill-opacity:1;stroke:none;stroke-width:3;stroke-linecap:round;stroke-linejoin:round;stroke-miterlimit:4;stroke-dasharray:24, 24;stroke-dashoffset:0;stroke-opacity:1"
     d="m 741.99121,472.20452 c -4.89973,-14.10985 -9.1446,-26.64736 -9.43304,-27.86114 -0.30822,-1.29701 19.31197,-13.57901 47.58875,-29.78999 l 48.11317,-27.58311 5.51332,-42.38985 c 3.03232,-23.31442 5.80822,-44.01437 6.16866,-45.99989 0.55142,-3.03763 12.65222,5.78738 76.31619,55.65674 41.61348,32.59673 76.47874,60.08649 77.47824,61.08837 1.2562,1.25904 1.0913,7.03315 -0.5339,18.69719 -1.2933,9.28157 -1.7729,16.87559 -1.0658,16.87559 1.4666,0 2.7646,-6.47543 4.4744,-22.32113 1.1431,-10.59425 1.3074,-10.89381 4.2922,-7.82673 1.707,1.75402 4.6351,8.34676 6.507,14.65054 l 3.4034,11.46142 -33.02303,10.7614 c -28.50584,9.28937 -36.51136,11.15966 -58.52472,13.67266 l -25.50172,2.91125 -13.68756,11.82547 -13.68755,11.82549 -57.74469,0 -57.74469,0 -8.90863,-25.65428 z"
     id="path3429"
     inkscape:connector-curvature="0" />
  <path
     style="fill:#b7c8be;fill-opacity:1;stroke:none;stroke-width:3;stroke-linecap:round;stroke-linejoin:round;stroke-miterlimit:4;stroke-dasharray:24, 24;stroke-dashoffset:0;stroke-opacity:1"
     d="m 699.12544,461.83637 -53.75322,-30.85382 43.19336,-28.00502 c 23.75635,-15.40276 43.49417,-29.15201 43.86181,-30.55388 0.36764,-1.40188 24.34827,-18.72724 53.29029,-38.5008 47.08586,-32.16967 52.54228,-35.47685 51.8654,-31.43599 -0.41607,2.48378 -2.86423,21.91532 -5.44037,43.18119 -2.57614,21.26588 -5.08514,39.35476 -5.57557,40.19748 -0.49041,0.84273 -20.6211,13.57581 -44.73487,28.29571 l -43.84321,26.76348 8.60239,26.07257 c 4.73131,14.33991 8.08147,25.98714 7.4448,25.88274 -0.63667,-0.10425 -25.34654,-14.07406 -54.91081,-31.04366 z"
     id="path3431"
     inkscape:connector-curvature="0" />
  <path
     style="fill:#6f917c;fill-opacity:1;stroke:none;stroke-width:3;stroke-linecap:round;stroke-linejoin:round;stroke-miterlimit:4;stroke-dasharray:24, 24;stroke-dashoffset:0;stroke-opacity:1"
     d="m 649.62223,513.60728 c -3.89278,-7.17834 -10.74976,-20.01234 -15.23775,-28.52 l -8.15999,-15.46847 -34.80858,-4.24558 c -19.14472,-2.33507 -35.13779,-4.59734 -35.54013,-5.02725 -0.40235,-0.42992 3.11608,-12.58522 7.81874,-27.0118 l 8.55026,-26.23013 10.07675,-5.14625 10.07675,-5.14625 93.14394,54.28466 c 51.22918,29.85657 92.32966,54.28876 91.33439,54.29379 -0.99526,0.005 -28.07745,4.79257 -60.18264,10.63897 -32.10518,5.84641 -58.73777,10.62983 -59.18352,10.62983 -0.44575,0 -3.99545,-5.87319 -7.88822,-13.05152 z"
     id="path3433"
     inkscape:connector-curvature="0" />
  <path
     style="fill:#dbe3de;fill-opacity:1;stroke:none;stroke-width:3;stroke-linecap:round;stroke-linejoin:round;stroke-miterlimit:4;stroke-dasharray:24, 24;stroke-dashoffset:0;stroke-opacity:1"
     d="m 475.00313,542.32522 c -36.09285,-3.89018 -112.47112,-16.02316 -110.06717,-17.4846 6.59261,-4.00782 207.07054,-108.43943 207.45493,-108.06601 0.24132,0.23441 -3.06427,10.18913 -7.34575,22.12162 -4.2815,11.93248 -7.1724,22.20235 -6.42425,22.82191 0.74817,0.61958 16.51975,2.77464 35.04795,4.78901 18.5282,2.01437 33.79465,3.84576 33.9254,4.06974 17.78773,30.46455 27.11558,47.05591 26.64127,47.38665 -1.21692,0.84856 -160.2363,26.36274 -162.75704,26.11387 -1.43075,-0.14125 -8.84465,-0.92974 -16.47534,-1.75219 z"
     id="path3435"
     inkscape:connector-curvature="0" />
  <path
     style="fill:#552200;fill-opacity:1;stroke:none;stroke-width:3;stroke-linecap:round;stroke-linejoin:round;stroke-miterlimit:4;stroke-dasharray:24, 24;stroke-dashoffset:0;stroke-opacity:1"
     d="m 286.57388,360.22235 c -24.07672,-17.92842 -33.61847,-25.99479 -31.15193,-26.33503 1.95561,-0.26976 31.59237,-2.80825 65.8595,-5.64108 53.90396,-4.45618 62.51152,-4.79824 63.84415,-2.53714 1.32555,2.24906 1.99777,2.20556 4.82133,-0.31199 2.5378,-2.26277 12.95781,-3.74208 46.0003,-6.53058 23.49564,-1.98283 44.08835,-3.36613 45.7616,-3.074 2.1678,0.37846 -5.37505,10.26168 -26.2407,34.38264 l -29.28302,33.8515 -16.88218,0 c -9.28519,0 -32.88852,0.45906 -52.45182,1.02012 l -35.56966,1.0201 -34.70757,-25.84454 z"
     id="path3437"
     inkscape:connector-curvature="0" />
  <path
     style="fill:#00aad4;fill-opacity:1;stroke:none;stroke-width:3;stroke-linecap:round;stroke-linejoin:round;stroke-miterlimit:4;stroke-dasharray:24, 24;stroke-dashoffset:0;stroke-opacity:1"
     d="m 177.67866,537.44119 c 0,-0.51847 4.3651,-8.63151 9.70022,-18.02896 5.33512,-9.39747 9.41055,-17.37599 9.0565,-17.73003 -0.35405,-0.35405 -25.03533,-2.11946 -54.84728,-3.92314 L 87.384526,494.47964 61.731594,476.64605 C 47.62248,466.83757 33.008555,456.65216 29.256205,454.0118 c -4.532194,-3.1891 -6.143528,-5.16008 -4.8,-5.87135 1.11235,-0.58889 19.662456,-4.84737 41.222456,-9.46329 21.56,-4.61593 40.076819,-8.86404 41.148499,-9.44026 1.07167,-0.57621 -22.688331,-9.22799 -52.800005,-19.22618 C 23.915483,400.01253 -0.985606,391.60392 -1.3086,391.32491 -1.631593,391.0459 12.886397,375.07918 30.9536,355.8433 l 32.849459,-34.97431 110.937791,-2.81517 c 106.43536,-2.70092 112.86315,-3.03799 158.37714,-8.3051 26.09165,-3.01945 48.23165,-5.48992 49.2,-5.48992 1.10032,0 1.76067,3.90065 1.76067,10.4 0,8.83756 -0.42066,10.40022 -2.8,10.40142 -5.45734,0.003 -117.85659,9.72184 -118.37013,10.23538 -0.28699,0.287 14.02376,11.42113 31.8017,24.74251 l 32.3235,24.22069 46.59775,0 46.59774,0 5.68078,-6 c 12.19783,-12.88326 51.28397,-59.81801 50.48249,-60.61951 -0.46642,-0.46641 -18.27482,0.6852 -39.57421,2.55914 -21.2994,1.87394 -39.00306,3.13027 -39.34148,2.79185 -0.33841,-0.33842 4.5364,-4.69145 10.83293,-9.67339 l 11.44826,-9.05809 105.61514,0 105.61513,0 -1.05088,34.8 c -0.57797,19.14 -1.05264,45.12197 -1.0548,57.73771 l -0.004,22.93771 -10.8,-5.95003 c -5.94,-3.27252 -13.41761,-7.38077 -16.61693,-9.12944 l -5.81692,-3.17941 -110.65829,59.58318 c -60.86207,32.77073 -110.20884,60.03702 -109.65948,60.59172 0.54935,0.55471 20.2032,3.99301 43.67522,7.64068 l 42.6764,6.63212 -40,0.16925 c -22,0.0931 -85.9,0.64679 -142,1.23042 -56.1,0.58363 -102,0.63696 -102,0.1184 l 0,8e-5 z"
     id="path3439"
     inkscape:connector-curvature="0" />
  <path
     style="fill:#00aad4;fill-opacity:1;stroke:none;stroke-width:3;stroke-linecap:round;stroke-linejoin:round;stroke-miterlimit:4;stroke-dasharray:24, 24;stroke-dashoffset:0;stroke-opacity:1"
     d="m 737.01423,335.29433 c -0.62697,-17.25047 -0.72862,-31.77581 -0.22588,-32.27854 0.50273,-0.50274 24.12871,-1.21083 52.50218,-1.57355 l 51.58813,-0.65949 -5.6,3.89408 c -9.00675,6.26305 -95.71205,61.98197 -96.45135,61.98197 -0.37022,0 -1.18611,-14.11401 -1.81308,-31.36447 z"
     id="path3441"
     inkscape:connector-curvature="0" />
  <path
     style="fill:#0088aa;fill-opacity:1;stroke:none;stroke-width:3;stroke-linecap:round;stroke-linejoin:round;stroke-miterlimit:4;stroke-dasharray:24, 24;stroke-dashoffset:0;stroke-opacity:1"
     d="m 917.30167,356.43936 -69.17699,-54.58056 17.97699,-0.9895 c 26.28623,-1.44687 135.57103,-1.6165 135.61153,-0.2105 0.1105,3.84264 -13.25614,105.64985 -14.15089,107.78056 -0.85024,2.02472 -15.98399,-9.1758 -70.26064,-52 z"
     id="path3443"
     inkscape:connector-curvature="0" />
  <path
     style="fill:#ffd42a;fill-opacity:1;stroke:none;stroke-width:3;stroke-linecap:round;stroke-linejoin:round;stroke-miterlimit:4;stroke-dasharray:24, 24;stroke-dashoffset:0;stroke-opacity:1"
     d="m 85.52178,310.92098 c 3.04661,-26.9284 16.54639,-48.13273 36.28274,-56.98988 18.13335,-8.13776 39.67688,-8.55583 56.53842,-1.09717 17.42,7.70569 31.78804,30.59968 35.40038,56.40685 l 1.03329,7.38197 -14.14897,0.98773 c -7.78194,0.54325 -37.11384,1.46623 -65.18201,2.05107 l -51.03303,1.06333 1.10918,-9.8039 z"
     id="path3445"
     inkscape:connector-curvature="0" />
  <path
     style="fill:#ff2a2a;fill-opacity:1;stroke:none;stroke-width:3;stroke-linecap:round;stroke-linejoin:round;stroke-miterlimit:4;stroke-dasharray:24, 24;stroke-dashoffset:0;stroke-opacity:1"
     d="m 635.15961,144.12456 0.46338,-21.355 -8.86338,-11.01302 c -4.87486,-6.05716 -8.86338,-11.22111 -8.86338,-11.47545 0,-0.25434 10.44,-0.507708 23.2,-0.563046 22.10885,-0.09588 23.2,0.04876 23.2,3.075446 0,1.74684 0.72,3.17607 1.6,3.17607 0.88,0 1.6,-1.44 1.6,-3.2 0,-2.871793 1.06667,-3.199998 10.4,-3.199998 l 10.4,0 0,10.399998 c 0,5.86667 0.69744,10.4 1.6,10.4 0.90257,0 1.6,-4.53333 1.6,-10.4 l 0,-10.399998 15.2,0 c 14.13334,0 15.2,0.224561 15.2,3.199998 0,1.76 0.72,3.2 1.6,3.2 0.88,0 1.6,-1.44 1.6,-3.2 0,-2.773332 1.06667,-3.199998 8,-3.199998 4.4,0 8,0.308397 8,0.685328 0,0.37693 -2.57753,5.01225 -5.72786,10.30072 -3.82598,6.42269 -6.4823,9.32588 -8,8.74349 -1.24967,-0.47955 -2.27214,-0.0749 -2.27214,0.89928 0,0.97415 0.75578,1.77118 1.67951,1.77118 1.12233,0 1.16566,0.91818 0.13062,2.76771 -0.89488,1.59907 -1.16934,9.96233 -0.64999,19.8069 l 0.89889,17.03919 -27.82951,1.01708 c -15.30624,0.55939 -36.10952,1.43603 -46.22952,1.9481 l -18.4,0.93102 0.46338,-21.355 z"
     id="path5693"
     inkscape:connector-curvature="0" />
  <path
     style="fill:#ffd5d5;fill-opacity:1;stroke:none;stroke-width:3;stroke-linecap:round;stroke-linejoin:round;stroke-miterlimit:4;stroke-dasharray:24, 24;stroke-dashoffset:0;stroke-opacity:1"
     d="m 635.49623,189.40939 0,-17.42113 6,-0.99174 c 3.3,-0.54546 23.73,-0.99966 45.4,-1.00935 l 39.4,-0.0176 1,5 c 0.55,2.75 0.99946,10.49 0.99879,17.2 l -10e-4,12.2 -42.04336,0.13735 c -23.12385,0.0755 -44.00331,0.62925 -46.39879,1.23047 l -4.35544,1.09315 0,-17.42114 z"
     id="path5695"
     inkscape:connector-curvature="0" />
  <path
     style="fill:#ff9955;fill-opacity:1;stroke:none;stroke-width:3;stroke-linecap:round;stroke-linejoin:round;stroke-miterlimit:4;stroke-dasharray:24, 24;stroke-dashoffset:0;stroke-opacity:1"
     d="m 638.69623,77.969562 0,-21.6 33.3653,0 c 18.35091,0 37.79091,0.462568 43.2,1.02793 l 9.8347,1.02793 -0.0218,16.972069 c -0.0328,25.478639 0.88419,24.172069 -16.96477,24.172069 l -15.01339,0 0,-15.999998 0,-16 -13.6,0 -13.6,0 0,16 0,15.999998 -13.6,0 -13.6,0 0,-21.599998 z"
     id="path5697"
     inkscape:connector-curvature="0" />
  <path
     style="fill:#ffff00;fill-opacity:1;stroke:none;stroke-width:3;stroke-linecap:round;stroke-linejoin:round;stroke-miterlimit:4;stroke-dasharray:24, 24;stroke-dashoffset:0;stroke-opacity:1"
     d="m 669.09623,82.769562 0,-15.2 10.4,0 10.4,0 0,15.2 0,15.2 -10.4,0 -10.4,0 0,-15.2 z"
     id="path5699"
     inkscape:connector-curvature="0" />
  <path
     style="fill:#ffff00;fill-opacity:0.43113771;stroke:none;stroke-width:3;stroke-linecap:round;stroke-linejoin:round;stroke-miterlimit:4;stroke-dasharray:24, 24;stroke-dashoffset:0;stroke-opacity:1"
     d="m 571.49623,86.63947 c 0,-49.41872 0.33397,-62.45598 1.58491,-61.87058 0.87169,0.40793 15.99169,6.77417 33.6,14.1472 l 32.01509,13.40552 0,23.62397 0,23.62398 -8.392,0 -8.39199,0 3.44834,5.70509 c 1.89659,3.1378 3.24808,5.8958 3.00332,6.1289 -0.54183,0.51602 -46.96884,31.50531 -52.74692,35.20773 l -4.12075,2.64046 0,-62.61227 z"
     id="path5701"
     inkscape:connector-curvature="0" />
  <path
     style="fill:#ffff00;fill-opacity:0.38323355;stroke:none;stroke-width:3;stroke-linecap:round;stroke-linejoin:round;stroke-miterlimit:4;stroke-dasharray:24, 24;stroke-dashoffset:0;stroke-opacity:1"
     d="m 762.7445,132.79816 c -17.80314,-7.17754 -32.56422,-13.21588 -32.80241,-13.41853 -0.23818,-0.20265 1.61829,-4.99202 4.12551,-10.64303 2.50722,-5.651 4.55857,-10.74537 4.55857,-11.3208 0,-0.57543 -3.51606,-1.04624 -7.81346,-1.04624 l -7.81346,0 0.84663,-23.48531 c 0.46565,-12.91692 1.01799,-23.7013 1.22744,-23.9653 0.43609,-0.54968 67.46277,-26.14939 68.46588,-26.14939 0.36241,0 1.00855,15.66 1.43589,34.8 0.42732,19.14 1.10787,46.86 1.51233,61.6 0.40445,14.74 0.26085,26.7727 -0.3191,26.73933 -0.57996,-0.0334 -15.62069,-5.9332 -33.42382,-13.11073 z"
     id="path5703"
     inkscape:connector-curvature="0" />
  <path
     style="fill:#ff2a2a;fill-opacity:1;stroke:none;stroke-width:3;stroke-linecap:round;stroke-linejoin:round;stroke-miterlimit:4;stroke-dasharray:24, 24;stroke-dashoffset:0;stroke-opacity:1"
     d="m 657.3378,45.574848 -15.75843,-0.524987 1.05033,-4.340149 c 1.77615,-7.339382 11.71816,-20.864435 18.75851,-25.518948 5.93298,-3.922414 8.14394,-4.416903 19.59773,-4.38309 14.48152,0.04275 18.95377,1.783084 28.53639,11.104676 5.42379,5.27604 15.521,20.628799 15.55889,23.657212 0.0142,1.13986 -33.60833,1.142484 -67.74342,0.0053 z"
     id="path5705"
     inkscape:connector-curvature="0" />
  <path
     style="fill:#ff2a2a;fill-opacity:1;stroke:none;stroke-width:3;stroke-linecap:round;stroke-linejoin:round;stroke-miterlimit:4;stroke-dasharray:24, 24;stroke-dashoffset:0;stroke-opacity:1"
     d="m 636.11251,427.51363 -8.42095,-4.84094 1.01863,-57.1359 c 0.56023,-31.42474 1.48561,-78.87584 2.05637,-105.44689 l 1.03776,-48.31099 50.99467,-0.48901 c 28.04707,-0.26895 51.105,-0.489 51.23983,-0.489 0.9068,0 6.2677,162.36987 5.42703,164.37262 -0.58139,1.38506 -8.60963,7.33205 -17.84052,13.21558 -15.54131,9.9056 -71.36081,42.04424 -75.34167,43.37874 -0.96261,0.3227 -5.53964,-1.5917 -10.17115,-4.25421 z"
     id="path5707"
     inkscape:connector-curvature="0" />
  <path
     style="fill:#131313;fill-opacity:0.75;stroke:none;stroke-width:6;stroke-linecap:round;stroke-linejoin:round;stroke-miterlimit:4;stroke-dasharray:18, 18;stroke-dashoffset:0;stroke-opacity:1"
     d="m 135.69901,314.71564 -12.15348,-2.41035 -3.08556,-24.31724 c -1.69707,-13.37449 -3.07479,-24.64329 -3.06162,-25.04178 0.0132,-0.39849 15.45641,-0.72453 34.3183,-0.72453 l 34.29434,0 0,2.20438 c 0,1.21241 -1.30415,12.17516 -2.89812,24.36166 -1.59396,12.18651 -2.89811,22.43534 -2.89811,22.77519 0,0.88391 -24.9375,5.74015 -28.98113,5.64368 -1.85962,-0.0444 -8.8502,-1.16532 -15.53462,-2.49101 z m 33.99763,-3.82368 c 1.91919,-0.31496 3.93811,-0.85272 4.48649,-1.19502 0.82331,-0.51391 6.03163,-36.80804 6.03163,-42.03136 0,-1.38959 -1.68561,-1.57969 -14.00755,-1.57969 l -14.00754,0 0,24.03872 0,24.03871 7.00377,-1.34934 c 3.85208,-0.74214 8.57402,-1.60705 10.4932,-1.92202 z m -20.39509,-21.62116 0,-16.42264 -3.86415,0 -3.86415,0 0,12.67924 0,12.67925 -3.13962,-0.62946 c -1.72679,-0.3462 -4.80188,-0.89595 -6.83353,-1.22166 l -3.69391,-0.59219 0.31278,3.25249 c 0.31153,3.23963 0.34334,3.25886 8.04107,4.85999 4.25057,0.88412 8.92378,1.65477 10.38491,1.71255 l 2.6566,0.10507 0,-16.42264 z"
     id="path5873"
     inkscape:connector-curvature="0" />
  <path
     style="fill:#ffcc00;fill-opacity:0.75;stroke:none;stroke-width:6;stroke-linecap:round;stroke-linejoin:round;stroke-miterlimit:4;stroke-dasharray:18, 18;stroke-dashoffset:0;stroke-opacity:1"
     d="m 134.81099,314.17833 c -5.57887,-1.08228 -10.33559,-2.14104 -10.57048,-2.35279 -0.2349,-0.21176 -1.7748,-11.17655 -3.42201,-24.3662 l -2.99492,-23.9812 17.34291,-0.6282 c 9.5386,-0.34551 24.90046,-0.6282 34.13747,-0.6282 l 16.79458,0 -0.50895,3.13963 c -0.27992,1.72679 -1.66129,12.70339 -3.06971,24.39245 -1.40842,11.68906 -2.7156,21.42896 -2.90484,21.64422 -0.18924,0.21527 -5.23964,1.40654 -11.22312,2.64727 -13.07105,2.71041 -20.15061,2.73846 -33.58093,0.13302 z m 31.13002,-2.29581 c 6.00289,-1.14919 8.57332,-2.07092 8.93268,-3.20317 0.94513,-2.97785 5.34107,-34.85621 5.34107,-38.73225 l 0,-3.86121 -14.00755,0 -14.00754,0 0,24.2277 0,24.22771 2.6566,-0.52265 c 1.46113,-0.28746 6.44927,-1.24872 11.08474,-2.13613 z m -16.63946,-22.61172 0,-16.42264 -3.86415,0 -3.86415,0 0,12.57689 c 0,12.55131 -0.004,12.57585 -2.17358,12.06179 -1.19547,-0.28331 -4.23849,-0.88754 -6.76227,-1.34274 l -4.58868,-0.82763 0,3.1994 c 0,1.75967 0.4387,3.47052 0.97488,3.8019 1.62594,1.00489 12.79455,3.21702 16.65531,3.29887 l 3.62264,0.0768 0,-16.42264 z"
     id="path5877"
     inkscape:connector-curvature="0" />
  <path
     style="fill:#d4aa00;fill-opacity:0.75;stroke:none;stroke-width:6;stroke-linecap:round;stroke-linejoin:round;stroke-miterlimit:4;stroke-dasharray:18, 18;stroke-dashoffset:0;stroke-opacity:1"
     d="m 133.60825,313.5033 c -4.64641,-0.9251 -8.64734,-1.88132 -8.89096,-2.12494 -0.36543,-0.36543 -6.32894,-44.05482 -6.32894,-46.36657 0,-1.1988 8.81042,-1.73693 38.73324,-2.36577 l 28.58985,-0.60083 -3.13494,24.30381 c -1.72422,13.3671 -3.31687,24.48573 -3.53921,24.70808 -0.22235,0.22235 -4.66076,1.28007 -9.86314,2.3505 -11.5338,2.37318 -23.95919,2.40662 -35.5659,0.0957 z m 28.89134,-0.55634 c 12.30267,-2.34105 12.57298,-2.53708 13.78538,-9.99726 2.19553,-13.50965 3.92979,-27.72068 3.92979,-32.20177 l 0,-4.66204 -14.00755,0 -14.00754,0 0,24.15095 c 0,20.15478 0.22571,24.15094 1.36407,24.15094 0.75024,0 4.77138,-0.64837 8.93585,-1.44082 z m -13.19804,-23.67616 0,-16.42264 -3.86415,0 -3.86415,0 -0.0132,9.90189 c -0.007,5.44603 -0.28501,10.91705 -0.61722,12.1578 -0.63507,2.37183 -0.89277,2.38523 -10.23752,0.5324 -2.49478,-0.49465 -2.65661,-0.31958 -2.65661,2.87414 0,1.87048 0.52788,3.72712 1.17305,4.12586 2.11569,1.30757 10.80962,3.08722 15.4911,3.17104 l 4.58868,0.0822 0,-16.42264 z"
     id="path5879"
     inkscape:connector-curvature="0" />
  <path
     style="fill:#ffe680;fill-opacity:0.75;stroke:none;stroke-width:6;stroke-linecap:round;stroke-linejoin:round;stroke-miterlimit:4;stroke-dasharray:18, 18;stroke-dashoffset:0;stroke-opacity:1"
     d="m 152.81761,310.47374 c -0.33987,-1.69935 -0.61794,-12.16445 -0.61794,-23.25577 l 0,-20.16604 13.91562,0 13.91562,0 -0.47448,4.10566 c -2.21874,19.19858 -5.31204,37.07733 -6.57717,38.01501 -0.78961,0.58523 -4.59257,1.5839 -8.45102,2.21926 -3.85845,0.63537 -7.93276,1.3839 -9.05402,1.66341 -1.67822,0.41835 -2.14791,-0.0381 -2.65661,-2.58153 z m 12.51995,-6.21751 c 4.13139,-0.79046 7.81672,-1.76858 8.18962,-2.17358 0.37289,-0.40501 0.98669,-4.17212 1.364,-8.37136 l 0.68601,-7.63497 -6.85857,0.57499 -6.85858,0.575 0,-3.80794 0,-3.80795 7.13262,0 c 6.58016,0 7.17773,-0.16835 7.71511,-2.17358 1.22972,-4.5887 1.22976,-4.58868 -10.98357,-4.58868 l -11.59246,0 0,11.12784 c 0,11.0289 0.0193,11.12385 2.17359,10.67915 1.19547,-0.24677 4.27289,-0.72156 6.83871,-1.05509 4.45678,-0.57934 4.65093,-0.50739 4.34717,1.61093 -0.2568,1.79083 -1.15417,2.36788 -4.66513,2.99987 -8.80114,1.58424 -8.69434,1.5277 -8.69434,4.60287 0,3.42345 0.50951,3.48904 11.20582,1.4425 z"
     id="path5883"
     inkscape:connector-curvature="0" />
  <path
     style="fill:#ffdd55;fill-opacity:1;stroke:none;stroke-width:6;stroke-linecap:round;stroke-linejoin:round;stroke-miterlimit:4;stroke-dasharray:18, 18;stroke-dashoffset:0;stroke-opacity:1"
     d="m 141.09023,314.89832 c -0.53132,-0.16663 -4.08677,-0.84827 -7.901,-1.51476 -3.81423,-0.66649 -7.38075,-1.48731 -7.9256,-1.82404 -1.10487,-0.68285 -7.30397,-46.33299 -6.41283,-47.22413 0.63974,-0.63974 35.09621,-1.93931 54.20037,-2.04423 l 12.64018,-0.0694 -3.10479,24.19543 c -1.70763,13.30748 -3.30042,24.39105 -3.53952,24.63016 -0.2391,0.2391 -4.53003,1.29906 -9.53539,2.35547 -7.91424,1.67035 -24.99765,2.56927 -28.42142,1.49552 z m 23.04383,-2.37412 c 4.7043,-0.98308 9.18966,-2.42381 9.96746,-3.20162 1.5471,-1.54709 4.76186,-20.88661 5.78204,-34.78386 l 0.62052,-8.45283 -14.15221,0 -14.1522,0 0,23.50692 c 0,12.92881 0.28981,23.79673 0.64402,24.15095 0.88655,0.88654 1.56054,0.81374 11.29037,-1.21956 z m -14.83251,-23.2534 0,-16.42264 -3.86415,0 -3.86415,0 -0.0132,9.90189 c -0.007,5.44603 -0.28501,10.91705 -0.61722,12.1578 -0.63507,2.37183 -0.89277,2.38523 -10.23752,0.5324 -2.49478,-0.49465 -2.65661,-0.31958 -2.65661,2.87414 0,1.87048 0.52788,3.72712 1.17305,4.12586 2.11569,1.30757 10.80962,3.08722 15.4911,3.17104 l 4.58868,0.0822 0,-16.42264 z"
     id="path5885"
     inkscape:connector-curvature="0" />
  <path
     style="fill:#f4e3d7;fill-opacity:0.75;stroke:none;stroke-width:6;stroke-linecap:round;stroke-linejoin:round;stroke-miterlimit:4;stroke-dasharray:18, 18;stroke-dashoffset:0;stroke-opacity:1"
     d="m 140.69583,304.22355 c -11.16584,-2.02127 -11.40343,-2.12136 -11.96418,-5.04051 -0.28178,-1.46682 -0.4389,-2.74253 -0.34918,-2.8349 0.0897,-0.0924 3.09436,0.3829 6.67696,1.05615 l 6.51382,1.22408 0,-12.89011 0,-12.8901 3.86415,0 3.86415,0 0,16.42264 c 0,9.03245 -0.32603,16.38341 -0.72452,16.33546 -0.3985,-0.048 -3.94503,-0.67017 -7.8812,-1.38271 z"
     id="path5889"
     inkscape:connector-curvature="0" />
  <path
     style="fill:#f4e3d7;fill-opacity:0.75;stroke:none;stroke-width:6;stroke-linecap:round;stroke-linejoin:round;stroke-miterlimit:4;stroke-dasharray:18, 18;stroke-dashoffset:0;stroke-opacity:1"
     d="m 154.51061,304.32132 c -0.97238,-2.53398 0.28142,-4.20676 3.66152,-4.88508 7.03973,-1.41275 9.48414,-2.56364 9.48414,-4.46537 0,-1.70093 -0.61606,-1.85357 -6.52075,-1.61565 l -6.52076,0.26275 -0.27419,-10.38491 -0.27419,-10.3849 9.45155,0.0132 c 12.01605,0.0168 14.06264,0.51959 13.21259,3.24619 -0.93499,2.99901 -2.13189,3.47167 -8.83274,3.48809 l -6.03774,0.0148 0,3.9622 0,3.96219 6.7996,-0.68285 6.7996,-0.68286 -0.65084,6.62255 c -0.35795,3.6424 -1.01009,7.32345 -1.44919,8.18011 -0.48957,0.95512 -3.14806,1.99677 -6.87329,2.69308 -3.34121,0.62454 -7.27076,1.37109 -8.73233,1.659 -1.87737,0.36981 -2.82929,0.0755 -3.24298,-1.00252 z"
     id="path5891"
     inkscape:connector-curvature="0" />
  <path
     style="fill:#ff8080;fill-opacity:0.75;stroke:none;stroke-width:6;stroke-linecap:round;stroke-linejoin:round;stroke-miterlimit:4;stroke-dasharray:18, 18;stroke-dashoffset:0;stroke-opacity:1"
     d=""
     id="path6534"
     inkscape:connector-curvature="0" />
  <path
     style="fill:#ff0000;fill-opacity:0.66216218;stroke:none;stroke-width:6;stroke-linecap:round;stroke-linejoin:round;stroke-miterlimit:4;stroke-dasharray:18, 18;stroke-dashoffset:0;stroke-opacity:1"
     d="m 665.56698,336.75426 c -9.01681,-4.55524 -16.52334,-8.39243 -16.68119,-8.52709 -1.15793,-0.98787 -5.98837,-47.65683 -5.02377,-48.53682 1.06432,-0.97095 38.80028,-13.92291 38.77079,-13.30713 -0.006,0.13168 -6.46152,13.36411 -14.34493,29.40541 -7.8834,16.04129 -14.33346,29.7202 -14.33346,30.39758 0,0.67738 2.35404,1.2316 5.2312,1.2316 4.94007,0 5.40927,-0.38017 8.43064,-6.83092 3.11584,-6.65244 3.35395,-6.83091 9.11372,-6.83091 l 5.9143,0 0,15.71111 c 0,8.64111 -0.1537,15.67923 -0.34155,15.64027 -0.18785,-0.039 -7.71894,-3.79786 -16.73575,-8.3531 z"
     id="path6536"
     inkscape:connector-curvature="0" />
  <path
     style="fill:#800000;fill-opacity:0.6418919;stroke:none;stroke-width:6;stroke-linecap:round;stroke-linejoin:round;stroke-miterlimit:4;stroke-dasharray:18, 18;stroke-dashoffset:0;stroke-opacity:1"
     d="m 682.64428,328.784 0,-15.02802 6.1611,0 c 6.00809,0 6.23739,0.16115 9.23336,6.48937 2.77074,5.85248 3.57394,6.53099 8.18383,6.91339 2.81136,0.23321 5.11157,0.0739 5.11157,-0.35397 0,-0.42788 -6.49126,-13.74925 -14.42502,-29.60303 -7.93375,-15.85378 -14.1033,-29.14676 -13.71011,-29.53995 0.58223,-0.58223 37.28767,10.15415 38.83908,11.36047 0.25167,0.19568 -0.94667,11.22139 -2.66296,24.50156 l -3.12054,24.14577 -16.10106,8.07122 c -8.85558,4.43916 -16.4179,8.07121 -16.80515,8.07121 -0.38726,0 -0.7041,-6.76261 -0.7041,-15.02802 z"
     id="path6538"
     inkscape:connector-curvature="0" />
  <path
     style="fill:#ffd5d5;fill-opacity:0.75;stroke:none;stroke-width:6;stroke-linecap:round;stroke-linejoin:round;stroke-miterlimit:4;stroke-dasharray:18, 18;stroke-dashoffset:0;stroke-opacity:1"
     d="m 659.8237,315.34106 c 2.95618,-6.15965 9.08115,-18.73046 13.61105,-27.93512 l 8.23619,-16.73575 0.062,8.32836 0.062,8.32836 -4.09855,9.01527 c -2.25421,4.9584 -4.09856,9.12596 -4.09856,9.26125 0,0.1353 1.84435,0.24599 4.09856,0.24599 l 4.09855,0 0,3.38887 0,3.38886 -5.94126,0.19737 -5.94127,0.19737 -2.65095,6.14446 c -1.45802,3.37946 -2.72169,6.21521 -2.80816,6.30168 -0.0865,0.0865 -2.37282,0.36313 -5.08079,0.61481 l -4.92359,0.4576 5.37488,-11.19938 z"
     id="path6540"
     inkscape:connector-curvature="0" />
  <path
     style="fill:#c8b7b7;fill-opacity:0.68243241;stroke:none;stroke-width:6;stroke-linecap:round;stroke-linejoin:round;stroke-miterlimit:4;stroke-dasharray:18, 18;stroke-dashoffset:0;stroke-opacity:1"
     d="m 701.44243,325.14677 c -0.58129,-0.65748 -2.22341,-3.76364 -3.64914,-6.90257 l -2.59224,-5.70716 -6.36156,0.47694 -6.36156,0.47695 0,-3.82075 0,-3.82076 4.4401,0 c 2.8731,0 4.44009,-0.27535 4.44009,-0.7802 0,-0.42911 -1.99804,-4.54657 -4.44009,-9.1499 l -4.4401,-8.36969 0.0372,-8.78126 0.0372,-8.78127 13.92899,27.66522 c 7.66094,15.21587 13.94573,27.89576 13.96619,28.17754 0.0205,0.28177 -1.75951,0.51232 -3.95549,0.51232 -2.94453,0 -4.27013,-0.31382 -5.04958,-1.19541 z"
     id="path6542"
     inkscape:connector-curvature="0" />
</svg>
